<svg width="61" height="51" viewBox="0 0 61 51" fill="none" xmlns="http://www.w3.org/2000/svg">
<path d="M34.1921 0.0624391C37.7996 -0.27429 42.8504 0.75442 45.7189 3.08044C47.5668 4.57945 48.5579 8.38302 46.7793 10.2703C45.3405 11.7968 43.7171 9.68602 42.5074 9.04549C41.4941 8.50901 40.2596 8.24643 39.1127 8.30115C27.0743 9.19791 22.3948 27.3785 30.7208 35.0865C32.5059 36.7538 34.886 37.634 37.3263 37.5294C40.7924 37.3919 43.6242 35.5189 45.8845 32.9944C46.9967 31.7523 48.662 30.3249 50.271 31.8196C51.1265 32.6255 51.2358 33.793 51.3176 34.8848C51.5166 37.5197 50.4143 41.049 48.5828 42.9875C48.5782 43.1332 48.5703 43.2788 48.5592 43.4242C48.459 44.6495 47.6414 45.5374 46.7486 46.2938C47.5845 46.0008 48.3451 45.5634 49.0953 45.1029C50.2736 44.3799 50.5983 43.4067 51.0368 42.1834C50.3528 40.2815 50.8077 38.8047 51.9402 37.2011C52.0776 37.0065 52.1588 36.9969 52.365 36.9676C52.8553 37.2377 52.8579 37.9937 52.9273 38.505C53.218 40.6426 51.8557 41.8199 51.0741 43.6961C51.6378 43.2754 53.976 41.1081 54.1612 40.5456C54.5599 39.335 54.7229 38.2405 56.218 37.3697C56.6435 37.122 57.5291 36.6369 58.1124 36.7635C58.3978 37.0173 58.1314 37.4003 58.0247 37.7376C57.6646 38.8792 56.794 39.9996 55.7316 40.566C55.0934 40.9067 54.5919 40.9067 54.1233 41.5959C53.6657 42.1435 53.0235 42.7874 52.5123 43.298C53.8405 42.8389 54.8027 42.0762 56.3109 42.233C56.868 42.2909 58.3788 42.2258 58.2708 43.0608C58.098 43.3437 57.302 43.8055 56.9884 43.951C55.5215 44.6327 54.7445 44.4102 53.3508 43.921C52.0076 43.4396 50.1557 45.2077 49.0619 45.9278C50.4294 45.5967 51.8479 45.5249 53.1014 46.2589C53.4791 46.48 54.3196 46.9643 54.4106 47.4073C54.4355 47.5304 54.4191 47.6299 54.336 47.7263C54.1161 47.9805 53.6048 48.0567 53.2893 48.1061C50.5505 48.535 50.0824 46.3519 48.37 46.3622C48.2325 46.3629 45.8871 47.275 45.4669 47.3978C44.1701 47.7769 42.9395 47.8283 41.7173 48.1503C40.9344 48.3565 40.1673 48.7354 39.3909 48.9824C37.5397 49.5714 35.5648 49.8692 33.6272 49.9608C31.0225 50.0839 28.2601 49.9358 25.7313 49.2494C24.8939 49.0221 24.0863 48.6388 23.2419 48.4459C22.3081 48.2327 21.352 48.274 20.4247 47.9824C19.9739 47.8407 19.5241 47.6817 19.0941 47.4849C18.4346 47.183 17.7304 46.6507 16.9934 46.6238C15.7327 46.5777 14.9499 47.848 13.4789 47.9195C12.7199 47.9565 11.5499 47.7466 10.9712 47.2252C10.7857 46.7904 11.6403 46.3929 11.9689 46.1898C13.5374 45.22 15.0091 45.6142 16.6624 46.0832C16.4416 45.8513 16.121 45.6226 15.8665 45.3753C14.7523 44.2925 14.6104 44.02 13.1342 43.5589C11.9818 43.7851 11.3242 44.0736 10.1 43.7612C9.49985 43.608 7.63137 42.6066 7.83273 41.9298C8.60862 41.0911 11.9832 41.7207 12.7552 42.6433C12.9123 42.831 13.5123 43.068 13.7625 43.1553C13.2362 42.5732 12.455 41.3674 12.0472 40.6834C10.9447 40.1856 9.93261 39.3084 9.45606 38.1831C9.23527 37.6618 8.89586 36.6941 9.11253 36.1423C9.2225 36.0423 9.34877 35.924 9.50391 35.9681C11.007 36.4043 12.3164 37.7711 12.4595 39.3756C12.5985 40.9339 14.0381 42.5358 15.0311 43.6869C14.6768 41.7768 14.1913 40.0239 13.3588 38.2674C13.2451 38.0277 13.1409 37.6961 13.0527 37.4407C12.2761 35.1793 11.793 32.8277 11.6153 30.4433C10.7161 16.5745 19.079 1.01039 34.1921 0.0624391Z" fill="#8B9485"/>
<path d="M42.5015 36.7014C43.2739 36.123 43.9947 35.6287 44.7769 34.9954C45.855 34.1228 47.4398 31.7378 48.91 31.8571C50.6584 31.9989 50.79 34.919 50.6689 36.256C50.5661 37.2572 50.2873 38.9203 49.7787 39.7974C48.4308 42.6795 46.4271 44.6626 43.7164 46.3266C43.4153 46.5118 42.4478 47.0718 42.1362 47.1948C36.9512 49.7669 30.6978 49.9308 25.1845 48.3914C23.3011 47.8165 21.3005 46.8741 19.7407 45.6611C21.8015 45.6918 24.0847 45.8507 25.8682 44.7631C26.6307 44.2981 27.389 43.7539 28.1348 43.2514C28.1861 43.2295 28.3876 43.0831 28.446 43.0423L28.8627 42.6629C28.3749 42.1991 28.137 42.7307 27.6441 42.895C27.4061 43.0454 26.8481 43.5255 26.6055 43.7234C26.6645 42.2794 26.6111 40.6301 26.5843 39.1821C26.5342 37.9571 26.5601 36.5677 26.5576 35.3299C26.5602 34.4243 26.5433 33.5186 26.507 32.6136C27.0671 33.294 27.2975 33.2417 27.8742 32.6278C28.0405 32.769 28.7031 33.7894 28.8804 34.0462C31.4428 37.0849 34.2202 38.5104 38.2853 38.0922C38.6518 38.0415 38.9765 37.9744 39.3392 37.8993C40.3544 37.7354 41.5942 37.1457 42.5015 36.7014Z" fill="#F8F0E6"/>
<path d="M26.5071 32.6136C27.0672 33.294 27.2975 33.2417 27.8743 32.6278C28.0405 32.769 28.7031 33.7894 28.8804 34.0462C31.4428 37.0849 34.2203 38.5104 38.2853 38.0922C38.2486 38.7843 37.9567 39.7981 37.2838 40.1347C36.1042 41.0635 34.5253 41.6095 33.059 41.8981C31.9547 41.7082 29.6918 41.8154 28.8628 42.6629C28.375 42.1991 28.137 42.7307 27.6441 42.895C27.4061 43.0454 26.8481 43.5255 26.6056 43.7234C26.6645 42.2794 26.6112 40.6301 26.5844 39.1821C26.5342 37.9571 26.5602 36.5677 26.5576 35.3299C26.5602 34.4243 26.5433 33.5186 26.5071 32.6136Z" fill="#ABB6A1"/>
<path d="M26.5071 32.6136C27.0672 33.294 27.2975 33.2417 27.8743 32.6278C28.0405 32.769 28.7031 33.7894 28.8804 34.0462C31.4428 37.0849 34.2203 38.5104 38.2853 38.0922C38.2486 38.7843 37.9567 39.7981 37.2838 40.1347C34.1443 40.1297 33.9329 38.3747 31.2805 37.8628C29.4116 37.5021 28.0564 38.1401 26.5844 39.1821C26.5342 37.9571 26.5602 36.5677 26.5576 35.3299C26.5602 34.4243 26.5433 33.5186 26.5071 32.6136Z" fill="#D18F76"/>
<path d="M26.5071 32.6136C27.0672 33.294 27.2975 33.2417 27.8743 32.6278C28.0405 32.769 28.7031 33.7894 28.8804 34.0462C27.8865 34.3229 27.3482 34.702 26.5576 35.3299C26.5602 34.4243 26.5433 33.5186 26.5071 32.6136Z" fill="#EECCA6"/>
<path d="M25.1846 48.3914C26.0596 47.1384 26.4515 46.5553 27.5876 45.5524C29.6027 43.7741 32.5936 42.7711 35.0463 44.2649C36.8792 45.3811 36.982 46.1428 39.4308 46.3312C39.9486 46.9626 41.4908 46.7928 42.1363 47.1948C36.9512 49.7669 30.6978 49.9308 25.1846 48.3914Z" fill="#C8B9CB"/>
<path d="M42.5017 36.7014C43.2742 36.123 43.9949 35.6287 44.7771 34.9954C45.8552 34.1228 47.44 31.7378 48.9102 31.8571C50.6587 31.9989 50.7902 34.919 50.6691 36.256C48.2713 36.1844 46.4725 36.9839 44.6881 38.5757C42.5305 40.5001 41.73 44.0817 38.3915 44.0201C37.4973 44.0035 36.3413 43.5624 35.6206 43.0813C37.153 42.3531 38.637 41.596 39.2569 39.8682C39.2765 39.8133 39.2955 39.7582 39.3138 39.7028C39.4906 38.9332 39.4506 38.653 39.3394 37.8993C40.3546 37.7354 41.5945 37.1457 42.5017 36.7014Z" fill="#ABB6A1"/>
<path d="M42.5016 36.7014C41.866 37.8927 40.6052 39.266 39.3137 39.7028C39.4905 38.9332 39.4505 38.653 39.3393 37.8993C40.3545 37.7354 41.5943 37.1456 42.5016 36.7014Z" fill="#D18F76"/>
<path d="M39.4309 46.3312C43.9345 45.6567 42.6738 41.331 46.4881 39.9121C47.5865 39.5035 48.643 39.5416 49.7788 39.7974C48.431 42.6795 46.4272 44.6626 43.7166 46.3266C43.4154 46.5118 42.4479 47.0718 42.1364 47.1948C41.4909 46.7928 39.9487 46.9626 39.4309 46.3312Z" fill="#E0B5AE"/>
<path d="M28.8628 42.6629C29.6917 41.8154 31.9547 41.7082 33.059 41.8981C31.8493 42.385 29.7317 42.8716 28.446 43.0423L28.8628 42.6629Z" fill="#EECCA6"/>
<path d="M18.1977 9.71572C23.7081 2.5298 31.2445 -0.617651 40.1719 1.23269C40.7316 1.36549 41.2343 1.52295 41.7835 1.69266C39.6653 3.46525 39.3504 6.2888 36.9225 7.19912L36.9814 7.26987C36.6456 7.64462 36.1972 7.96067 35.8561 8.31016C31.6229 10.0744 29.243 12.7047 27.3272 16.9096C27.3256 16.9145 27.3241 16.9193 27.3226 16.9241C25.8467 17.7942 25.4037 18.0644 23.6337 17.8652C23.3626 17.7602 23.0659 17.6252 22.796 17.5093C20.3534 18.3103 19.4238 18.7224 17.5319 20.5652C15.9212 20.8358 14.5412 22.5523 13.7382 23.9025C13.4054 24.462 12.7295 25.9508 12.2327 26.2397C12.7895 19.9505 14.4442 14.8625 18.1977 9.71572Z" fill="#C8B9CB"/>
<path d="M18.1978 9.71572C23.7081 2.5298 31.2445 -0.617651 40.1719 1.23269C38.4418 2.20315 37.5915 3.51682 35.9471 4.40305C33.6318 5.65127 30.8635 3.89263 28.4776 5.07834C25.1296 6.51388 24.3216 10.5574 20.068 10.007C19.586 9.94459 18.638 9.91448 18.1978 9.71572Z" fill="#F8F0E6"/>
<path d="M36.9225 7.19913L36.9814 7.26988C36.6456 7.64463 36.1972 7.96068 35.8561 8.31017C31.6229 10.0744 29.243 12.7047 27.3272 16.9096C27.3256 16.9145 27.3241 16.9193 27.3226 16.9242C25.8467 17.7942 25.4037 18.0644 23.6337 17.8652C23.3626 17.7602 23.0659 17.6252 22.796 17.5093C20.3751 16.1163 20.4176 12.8279 16.6123 13.2556C21.0051 11.0206 21.7375 14.4665 25.2287 13.8826C27.1534 13.5149 28.4078 11.5114 29.2542 9.92019C31.3617 5.95784 33.9833 7.91788 36.9225 7.19913Z" fill="#D18F76"/>
<path d="M21.3834 26.692C21.7732 27.0959 22.1472 27.5147 22.5047 27.9475L22.7182 27.6529L23.4873 28.5436C24.1386 29.3708 24.8974 30.2193 25.5872 31.0237L25.8229 31.2958C25.5998 31.1516 24.9791 30.678 24.8035 30.6262C24.9947 30.9233 25.8329 31.8448 26.1031 32.1363C26.0576 36.0238 26.142 40.0983 26.1935 43.9896C25.4572 44.4688 24.8534 44.7011 24.045 45.0305C23.9798 43.3821 24.1653 41.2907 23.8628 39.716C23.3289 36.9363 19.3101 37.0158 18.8382 39.863C18.5811 41.4146 18.697 43.2117 18.6975 44.7894C18.0991 44.2713 17.2655 43.4419 16.7982 42.8189C16.8 39.2849 16.6866 35.775 16.6589 32.2454C17.9131 30.612 20.0054 28.2724 21.3834 26.692Z" fill="#E0B5AE"/>
<path d="M22.7181 27.6529L23.4872 28.5436C24.1385 29.3708 24.8973 30.2193 25.5871 31.0237L25.8228 31.2958C25.5997 31.1516 24.979 30.678 24.8034 30.6262C24.4256 30.3393 22.9261 28.4364 22.5046 27.9475L22.7181 27.6529Z" fill="#919285"/>
<path d="M19.2358 33.2113C19.7661 33.1973 20.7038 33.0726 21.0786 33.3718C21.3559 33.7835 21.214 34.8542 21.16 35.3814C20.6738 35.4084 19.754 35.5338 19.3658 35.2901C19.0536 34.9381 19.2147 33.7404 19.2358 33.2113Z" fill="#919285"/>
<path d="M19.5696 33.5429L20.8071 33.5515L20.7979 35.0902L19.5968 35.0956C19.5695 34.5982 19.5753 34.0449 19.5696 33.5429Z" fill="#F8F0E6"/>
<path d="M21.7445 33.1768C22.3812 33.1655 22.9043 33.1596 23.5383 33.1988C23.567 33.659 23.6827 34.9809 23.5221 35.3763C22.9083 35.3876 22.2944 35.3893 21.6806 35.3814C21.6558 35.016 21.5796 33.4448 21.7445 33.1768Z" fill="#919285"/>
<path d="M21.9717 33.5406L23.2745 33.5393C23.2805 34.0339 23.2721 34.5472 23.2706 35.0435L21.9861 35.048L21.9717 33.5406Z" fill="#F8F0E6"/>
<path d="M20.5483 30.2686C20.8161 30.248 20.9432 30.2045 21.1314 30.407C21.2065 30.9293 21.1751 32.1628 21.137 32.7146C20.8152 32.7495 20.4264 32.7463 20.0967 32.7521L19.2254 32.7494C19.1949 31.5369 19.4304 30.8479 20.5483 30.2686Z" fill="#8B9485"/>
<path d="M20.7072 30.5892C20.8687 30.7742 20.8054 32.0924 20.8031 32.4285L19.7027 32.4295L19.6445 32.3738C19.4435 31.5845 20.0965 30.9523 20.7072 30.5892Z" fill="#F8F0E6"/>
<path d="M21.668 32.7002C21.6561 32.1788 21.6327 31.6503 21.6331 31.1297C21.6334 30.7224 21.6395 30.2667 22.1093 30.1851C22.4905 30.2834 22.8956 30.6801 23.1291 30.99C23.4189 31.4321 23.4867 31.7198 23.5033 32.2568C23.5372 32.4921 23.5583 32.4156 23.4714 32.6121C23.1181 32.8152 22.1103 32.717 21.668 32.7002Z" fill="#F8F0E6"/>
<path d="M21.668 32.7002C21.6561 32.1788 21.6327 31.6503 21.6331 31.1297C21.6334 30.7224 21.6395 30.2667 22.1093 30.1851C22.4905 30.2834 22.8956 30.6801 23.1291 30.99L22.8549 31.194C22.5378 30.8813 22.322 30.7251 21.937 30.494L21.9744 32.3746C22.2614 32.3791 22.9771 32.4333 23.1862 32.301C23.2306 32.3203 23.3796 32.2671 23.4418 32.2501L23.431 32.3208L23.5033 32.2568C23.5372 32.4921 23.5583 32.4156 23.4714 32.6121C23.1181 32.8152 22.1103 32.717 21.668 32.7002Z" fill="#8B9485"/>
<path d="M23.1289 30.99C23.4187 31.4321 23.4866 31.7198 23.5032 32.2568L23.4309 32.3208L23.4416 32.2501C23.3795 32.2671 23.2305 32.3203 23.186 32.301C23.0915 31.8529 23.0535 31.6148 22.8547 31.194L23.1289 30.99Z" fill="#919285"/>
<path d="M23.6338 17.8652C25.4038 18.0644 25.8468 17.7942 27.3226 16.9241C26.4046 19.2714 25.8098 21.9161 25.8406 24.448C25.8513 26.5118 26.245 28.4089 26.8902 30.3546C27.0478 30.7121 27.2798 31.1962 27.3804 31.5615C27.3506 31.7593 27.3214 31.8602 27.2633 32.0522C27.4003 32.2527 27.4489 32.3668 27.4041 32.597C26.9737 32.9102 26.1108 31.6392 25.823 31.2958L25.5872 31.0236C24.8975 30.2193 24.1387 29.3708 23.4874 28.5436L22.7183 27.6529L22.6982 27.6158C22.4309 27.3664 22.0536 26.8847 21.8088 26.5905C21.7034 26.4913 21.5975 26.4206 21.4804 26.3368C21.2068 26.3491 21.2163 26.4078 20.9624 26.5948C20.6804 26.9523 20.1552 27.6355 19.8324 27.9332L19.3437 27.511L19.2921 27.5198L19.2443 27.369C18.8604 27.5584 18.5723 28.2769 18.0823 28.433C17.9077 28.211 17.7203 27.2015 17.5208 26.8853C16.9255 25.9422 16.0082 25.2636 15.835 24.1006C15.6687 22.9836 16.8681 21.4404 17.532 20.5652C19.4239 18.7224 20.3535 18.3103 22.796 17.5093C23.066 17.6252 23.3627 17.7602 23.6338 17.8652Z" fill="#EECCA6"/>
<path d="M23.6337 17.8652C25.4036 18.0644 25.8467 17.7942 27.3225 16.9241C26.4045 19.2714 25.8097 21.9161 25.8405 24.448C23.1216 23.7866 22.6033 21.2914 19.5493 20.4661C20.8557 18.8161 21.9655 18.6428 23.5972 17.8826L23.6337 17.8652Z" fill="#C8B9CB"/>
<path d="M22.796 17.5093C23.066 17.6252 23.3627 17.7602 23.6338 17.8652L23.5973 17.8826C21.9656 18.6428 20.8558 18.8161 19.5494 20.4661C18.5126 21.6164 17.4225 23.1649 18.9606 24.4551C19.4422 24.8591 19.997 25.1805 20.5287 25.5163C19.7242 26.5155 18.8988 27.4516 18.0823 28.433C17.9077 28.211 17.7203 27.2015 17.5208 26.8853C16.9255 25.9422 16.0082 25.2636 15.835 24.1006C15.6687 22.9836 16.8681 21.4404 17.532 20.5652C19.4239 18.7224 20.3535 18.3103 22.796 17.5093Z" fill="#F8F0E6"/>
<path d="M20.5287 25.5163C21.5263 24.5533 21.8515 25.0415 22.6451 25.9491C23.9924 27.4899 25.2593 29.1118 26.5942 30.6615C26.5401 30.4752 26.5349 30.4844 26.5905 30.3022L26.7173 30.2533L26.8902 30.3547C27.0478 30.7121 27.2798 31.1962 27.3804 31.5615C27.3506 31.7593 27.3214 31.8602 27.2633 32.0522C27.4003 32.2527 27.4489 32.3668 27.4041 32.597C26.9737 32.9102 26.1108 31.6393 25.823 31.2958L25.5872 31.0237C24.8975 30.2193 24.1387 29.3708 23.4873 28.5436L22.7183 27.6529L22.6982 27.6159C22.4309 27.3664 22.0536 26.8847 21.8088 26.5905C21.7034 26.4913 21.5975 26.4206 21.4804 26.3368C21.2068 26.3491 21.2163 26.4078 20.9624 26.5948C20.6804 26.9523 20.1552 27.6355 19.8323 27.9332L19.3437 27.511L19.2921 27.5198L19.2443 27.369C18.8604 27.5584 18.5723 28.2769 18.0823 28.433C18.8988 27.4516 19.7242 26.5155 20.5287 25.5163Z" fill="#919285"/>
<path d="M23.4873 28.5436C23.6766 28.4576 23.894 28.3426 24.0836 28.2485C24.7814 29.0232 25.5034 29.9285 26.1579 30.7497C25.9194 30.83 25.7847 30.8598 25.5872 31.0236C24.8974 30.2193 24.1386 29.3708 23.4873 28.5436Z" fill="#D18F76"/>
<path d="M20.3374 26.3289C21.2629 25.1659 21.4503 25.0858 22.4421 26.2854C22.1576 26.3761 22.0471 26.3969 21.8086 26.5905C21.7032 26.4913 21.5973 26.4206 21.4802 26.3368C21.2066 26.3491 21.2161 26.4078 20.9622 26.5948C20.7426 26.5149 20.4947 26.4791 20.3374 26.3289Z" fill="#C78C70"/>
<path d="M26.1579 30.7497C26.5046 31.1538 26.9424 31.6387 27.2632 32.0522C27.4002 32.2527 27.4488 32.3668 27.4041 32.5969C26.9737 32.9102 26.1107 31.6392 25.8229 31.2958L25.5872 31.0236C25.7847 30.8598 25.9194 30.83 26.1579 30.7497Z" fill="#D18F76"/>
<path d="M19.3435 27.511C19.5261 27.2272 20.0958 26.5798 20.3374 26.3289C20.4947 26.4791 20.7426 26.5149 20.9622 26.5948C20.6803 26.9523 20.155 27.6355 19.8322 27.9332L19.3435 27.511Z" fill="#D18F76"/>
<path d="M22.4421 26.2854C22.7148 26.6014 23.0086 26.9301 23.2635 27.2582C23.0819 27.391 22.9061 27.5393 22.698 27.6159C22.4307 27.3664 22.0534 26.8847 21.8086 26.5905C22.0471 26.397 22.1576 26.3761 22.4421 26.2854Z" fill="#D18F76"/>
<path d="M23.2635 27.2582L24.0835 28.2485C23.8939 28.3426 23.6765 28.4576 23.4872 28.5436L22.7181 27.6529L22.698 27.6158C22.9061 27.5393 23.0819 27.391 23.2635 27.2582Z" fill="#C78C70"/>
<path d="M26.5941 30.6615C26.54 30.4752 26.5348 30.4844 26.5904 30.3022L26.7172 30.2533L26.8901 30.3546C27.0477 30.7121 27.2797 31.1962 27.3803 31.5615C27.127 31.3599 26.7882 30.9197 26.5941 30.6615Z" fill="#F8F0E6"/>
<path d="M12.2327 26.2397C12.7295 25.9508 13.4054 24.462 13.7382 23.9025C14.5413 22.5523 15.9212 20.8358 17.5319 20.5652C16.8681 21.4405 15.6686 22.9836 15.835 24.1006C16.0082 25.2636 16.9255 25.9422 17.5207 26.8853C17.7203 27.2015 17.9077 28.211 18.0823 28.433C17.1884 29.689 15.5581 31.0827 14.941 32.4294C14.8127 32.7093 15.3043 33.635 16.2769 32.6658L16.3012 36.4712C16.305 37.1379 16.3419 38.1592 16.2513 38.7881C16.1183 38.2844 15.9198 36.9422 15.2871 36.9771C14.8382 37.2392 14.4874 38.186 14.2722 38.686C12.4846 34.4444 12.0664 30.7839 12.2327 26.2397Z" fill="#EECCA6"/>
<path d="M41.7836 1.69266C43.3815 2.17128 45.5796 3.4517 46.3775 4.94188C47.1375 6.36197 47.616 9.77364 45.4186 10.1719C44.3352 9.75446 44.239 9.29194 43.3206 8.73001C40.7113 7.13282 38.5165 7.62341 35.8562 8.31016C36.1972 7.96067 36.6456 7.64462 36.9814 7.26986L36.9225 7.19911C39.3504 6.2888 39.6653 3.46525 41.7836 1.69266Z" fill="#ABB6A1"/>
<path d="M20.859 38.1363C21.0056 38.124 21.1524 38.1141 21.2994 38.1066C23.6028 37.995 23.6459 40.6366 23.5735 42.2515C23.5321 43.1737 23.5586 44.1878 23.586 45.1118C23.0237 45.1585 22.4605 45.1933 21.8968 45.216C20.994 45.266 20.0716 45.2417 19.1661 45.2305C19.1743 44.5245 19.1295 43.8055 19.153 43.1037C19.2236 41.0009 18.6096 39.2319 20.859 38.1363Z" fill="#E0B5AE"/>
<path d="M22.3774 41.5708C23.1491 41.5983 23.0809 42.0921 22.8036 42.6279C22.0548 42.7139 22.07 42.0663 22.3774 41.5708Z" fill="#8B9485"/>
<path d="M15.4704 42.2271C15.6219 42.3261 16.596 43.5856 16.8053 43.8249C17.2481 44.323 17.7143 44.7996 18.2025 45.2532C18.9838 45.9755 19.9732 46.6015 20.8658 47.1789C21.1006 47.3308 21.2642 47.4009 21.462 47.6113C19.4234 47.0695 17.7602 46.3839 16.2203 44.7595C15.7621 44.2761 15.3869 42.9158 15.4704 42.2271Z" fill="#F8F0E6"/>
<path d="M18.3477 28.6902C18.5121 28.8283 18.6753 28.9677 18.8373 29.1086C17.9858 30.1114 17.1318 31.1172 16.2693 32.1099C16.0363 32.3782 15.7749 32.6588 15.416 32.6786L15.3298 32.5616C15.3258 32.4276 15.3468 32.2802 15.4349 32.174C16.392 31.0203 17.3654 29.8195 18.3477 28.6902Z" fill="#D18F76"/>
<path d="M46.4018 45.1916C46.4516 45.6214 46.0215 46.3005 45.7603 46.6313C45.1941 46.8374 44.3438 47.0805 43.7572 47.2L43.7422 47.124C44.5382 46.6186 45.7433 45.8447 46.4018 45.1916Z" fill="#F8F0E6"/>
<path d="M19.292 27.5198L19.3436 27.511L19.8322 27.9332C19.5078 28.3311 19.1761 28.723 18.8372 29.1087C18.6753 28.9677 18.512 28.8283 18.3477 28.6902C18.6697 28.306 18.9845 27.9158 19.292 27.5198Z" fill="#C78C70"/>
<path d="M16.2672 40.2528C16.3066 40.7027 16.3739 41.5696 16.3019 42.0051L16.1906 42.0218C15.6606 41.3578 15.9782 40.9603 16.2672 40.2528Z" fill="#EECCA6"/>
<path d="M52.5915 12.353C53.8843 12.1082 55.132 12.9548 55.3814 14.2464C55.6314 15.538 54.789 16.7882 53.4981 17.0427C52.2007 17.2985 50.9419 16.4512 50.6912 15.1527C50.4398 13.8543 51.2921 12.5991 52.5915 12.353Z" fill="#EECCA6"/>
<path d="M5.30849 13.204C5.78779 13.2525 5.99582 14.515 6.32587 15.0097C6.74704 15.292 7.5573 15.5188 7.80415 15.7725C7.66733 16.2387 6.48481 16.5674 6.26499 16.8821C6.03156 17.2162 5.77496 18.0161 5.53695 18.474C4.95083 18.4122 5.0284 17.461 4.67387 16.9231C4.29675 16.351 3.34785 16.2604 3.03076 15.9227C3.03947 15.5242 4.03563 15.4421 4.36018 15.1137C4.82953 14.6386 5.02577 13.8216 5.30849 13.204Z" fill="#EECCA6"/>
<path d="M54.249 24.2094C54.6169 24.4103 54.7348 25.4008 55.0162 25.735C55.3416 26.1209 56.1808 26.3 56.5428 26.6496C56.4433 27.0605 55.5825 27.0598 55.2035 27.4139C54.7367 27.8498 54.6372 28.9329 54.2399 29.2316C53.8831 28.7813 53.8347 27.8005 53.2259 27.3741C52.735 27.03 52.3697 27.0399 51.8781 26.6723L51.8159 26.6256C52.2093 26.4696 53.3961 26.0599 53.5846 25.704C53.8046 25.2868 53.8825 24.5895 54.249 24.2094Z" fill="#C8B9CB"/>
<path d="M6.05647 29.2546C6.28251 29.4253 6.51724 30.118 6.65792 30.4382C6.95916 30.6809 7.66783 30.8977 7.70435 31.186C7.49704 31.4138 7.11299 31.5188 6.80592 31.6429C6.4853 32.092 6.35274 32.4941 6.1745 33.0032C5.84766 32.836 5.70031 32.1458 5.44024 31.681C5.12865 31.5106 4.64117 31.4104 4.45166 31.1265C4.56824 30.9471 5.20196 30.7069 5.54111 30.4238L5.59943 30.3741C5.7511 29.9436 5.86114 29.6665 6.05647 29.2546Z" fill="#ABB6A1"/>
<path d="M0.524258 23.3726C0.812673 23.2472 1.14632 23.2868 1.39729 23.4763C1.64833 23.6657 1.77775 23.9757 1.73611 24.2874C1.69442 24.5991 1.48802 24.8642 1.19607 24.9811C0.75376 25.1582 0.251161 24.9474 0.0675465 24.5078C-0.116068 24.0682 0.0873146 23.5627 0.524258 23.3726Z" fill="#C8B9CB"/>
<path d="M10.4443 8.1716C10.7229 8.07291 11.0331 8.13319 11.2546 8.32901C11.476 8.52476 11.5737 8.8253 11.5098 9.11386C11.4459 9.40242 11.2304 9.63358 10.947 9.71761C10.5243 9.84295 10.0787 9.60864 9.94238 9.18945C9.80609 8.77026 10.0287 8.3188 10.4443 8.1716Z" fill="#D18F76"/>
<path d="M59.7889 31.9268C60.2065 31.885 60.5816 32.185 60.6327 32.602C60.6831 33.0191 60.3918 33.4003 59.9755 33.4602C59.6986 33.5001 59.421 33.3869 59.2515 33.1643C59.0813 32.9418 59.0453 32.6447 59.1566 32.3879C59.2685 32.131 59.51 31.9547 59.7889 31.9268Z" fill="#D18F76"/>
<path d="M55.6746 10.4071C55.8913 10.481 55.9077 10.4984 55.9928 10.7018C55.9482 11.2128 55.3146 11.8397 54.9546 12.1897C54.9153 12.1642 54.876 12.1387 54.8367 12.1133C54.2181 11.7686 55.3702 10.7348 55.6746 10.4071Z" fill="#EECCA6"/>
<path d="M48.96 11.84C49.4987 11.8453 50.1324 12.3456 50.4989 12.7164C50.6266 12.8459 50.5565 13.0165 50.5264 13.1752C49.9877 13.2415 49.3783 12.7015 49.0287 12.3321C48.8886 12.1838 48.943 12.0254 48.96 11.84Z" fill="#EECCA6"/>
<path d="M53.3667 17.686L53.6128 17.8068C53.9015 18.2237 53.9826 19.2528 53.6475 19.6813L53.4177 19.5652C53.188 19.2837 53.1303 18.5896 53.1375 18.2345C53.1441 17.8591 53.1395 17.911 53.3667 17.686Z" fill="#EECCA6"/>
<path d="M51.9381 9.74263L52.1568 9.80467C52.4762 10.1199 52.6909 11.3098 52.4716 11.7607C51.8183 11.7479 51.6789 10.1787 51.9381 9.74263Z" fill="#EECCA6"/>
<path d="M56.7324 14.0619C57.1284 14.0291 57.7968 13.8906 57.931 14.3708L57.8478 14.4994C57.656 14.5958 57.6227 14.5978 57.408 14.618C56.8313 14.6754 56.5727 14.7415 56.0176 14.5276L56.0156 14.2561C56.3207 14.1206 56.4064 14.1134 56.7324 14.0619Z" fill="#EECCA6"/>
<path d="M49.7788 15.0516L49.89 15.053C50.0661 15.1838 50.0092 15.1168 50.091 15.3272L50.0157 15.4762C49.7041 15.6909 48.9625 15.7873 48.5599 15.8585C48.3622 15.8008 48.2614 15.7386 48.1685 15.5746L48.2261 15.4361C48.5776 15.1523 49.3212 15.1033 49.7788 15.0516Z" fill="#EECCA6"/>
<path d="M51.069 17.0318C51.2477 17.1333 51.2516 17.1378 51.3419 17.3173C51.3465 17.8725 50.7855 18.399 50.4163 18.7898C50.2592 18.7119 50.2245 18.7087 50.1453 18.5495C50.1231 18.095 50.7718 17.3749 51.069 17.0318Z" fill="#EECCA6"/>
<path d="M55.4344 16.6264C55.9083 16.8031 56.5001 17.196 56.7128 17.6798C56.7763 17.8245 56.6735 17.9761 56.6127 18.1044C56.2166 17.9456 55.4305 17.3907 55.2904 16.9498C55.2577 16.8456 55.3735 16.723 55.4344 16.6264Z" fill="#EECCA6"/>
</svg>
