<svg width="166" height="38" viewBox="0 0 166 38" fill="none" xmlns="http://www.w3.org/2000/svg">
<path d="M13.3365 1.56916C13.2782 1.61426 13.0273 1.75578 12.9258 1.82806C12.9988 1.68327 13.5432 1.40625 13.3365 1.56916ZM9.31937 13.273C9.35033 13.1945 9.3816 13.1162 9.41317 13.038C9.27087 13.2266 9.10831 13.4971 8.97615 13.6725C8.95444 13.7012 8.96089 13.5961 8.91323 13.6663C8.86567 13.7366 8.93408 13.7593 8.87465 13.8672C8.80659 13.9871 8.43401 14.5029 8.3253 14.6944C7.91318 15.4065 7.55656 16.1559 7.16965 16.8875C7.50191 16.1006 7.07206 16.8493 6.99079 17.0756C6.97438 17.1267 7.08495 17.1663 6.70562 17.9349C6.47074 18.426 6.49969 17.893 6.23334 18.7692C6.61774 18.1669 6.33999 18.7996 6.14787 19.3089C6.11342 19.394 5.82806 20.1051 5.72772 20.4228C5.69245 20.5311 5.69751 20.7169 5.65174 20.8621C5.62023 20.962 5.56222 21.0274 5.51725 21.1759C5.3085 21.8656 5.12269 22.5496 4.9476 23.2525C4.88571 22.8077 4.80539 23.5613 4.79329 23.5916C4.71258 23.7509 4.87069 22.9901 4.77605 23.2846C4.68577 23.7028 4.60446 24.1301 4.53591 24.5504C4.6155 24.21 4.58898 25.024 4.51875 25.1676C4.64764 25.1211 4.17022 27.0647 4.23242 27.3762C4.2427 27.4377 4.31341 27.0355 4.2654 27.9733C4.26156 28.0759 4.22053 28.0379 4.2244 28.0916C4.22683 28.1242 4.35782 28.3136 4.29143 28.5184C4.27154 28.5948 4.15396 28.1206 4.24599 29.166C4.29394 28.9714 4.32802 29.2559 4.36897 29.6366C4.43077 30.204 4.4969 30.8695 4.5076 31.0526C4.51464 30.9819 4.52183 30.9102 4.52917 30.8377C4.53204 31.1881 4.58536 31.233 4.59432 31.3073C4.63836 31.6467 4.68106 32.111 4.74269 32.3737C4.81561 32.6808 4.8897 32.6612 4.96274 33.0563C4.95538 32.9632 4.94819 32.8663 4.94122 32.7655C5.00664 33.0468 5.07295 33.2922 5.13729 33.5013C4.87846 33.0254 5.16719 33.6197 5.18187 33.6409C5.21102 33.7102 5.13453 33.6254 5.18227 33.7394C5.18718 33.7487 5.21942 33.7264 5.28609 33.8798C5.42002 34.169 5.35047 34.1226 5.39828 34.2174C5.40039 34.2191 5.42796 34.2023 5.50455 34.3106C5.58983 34.4072 5.5184 34.3772 5.4692 34.3152C5.44728 34.2788 5.42547 34.5849 5.23112 34.0846C5.29708 34.265 5.24068 34.2908 5.25265 34.3176C5.27164 34.3617 5.39593 34.5281 5.38523 34.5058C5.41708 34.513 5.43597 34.4622 5.44464 34.4608C5.4474 34.4612 5.44679 34.4746 5.38759 34.4364C5.3387 34.4014 5.20149 34.3375 5.15915 34.2668C5.03904 34.3158 5.07484 34.3451 5.16485 34.3745C5.26159 34.4026 5.40053 34.478 5.4083 34.498C5.41963 34.5338 5.28089 34.4798 5.22441 34.4679C4.8154 34.4058 5.04861 34.3475 4.95528 34.2763C4.89912 34.2472 4.8268 34.3423 4.89894 34.2289C4.77669 34.257 4.84358 34.2571 4.83534 34.2709C4.83896 34.2831 4.84433 34.2955 4.84571 34.2995C4.84278 34.3148 4.86795 34.2797 4.88139 34.2764C4.89548 34.2754 4.86927 34.3226 4.92215 34.3094C4.93265 34.306 4.99183 34.2135 4.86977 34.2481C5.02699 34.1732 5.00207 34.1248 5.1296 34.1481C5.1817 33.8881 5.32109 34.1276 5.40071 34.073C5.60071 33.9293 5.45526 33.8737 5.45947 33.8618C5.49505 33.7852 6.07712 33.2315 6.20552 33.0334C6.21941 33.1736 5.77517 33.5321 5.6979 33.6329C5.45472 33.9787 6.13649 33.2357 6.02092 33.5379C6.08144 33.4208 6.14349 33.2985 6.20683 33.1716C6.42822 33.0265 6.23988 33.3175 6.63653 32.7753C6.65098 32.6504 6.34842 33.1526 6.37817 33.0299C6.39746 32.9591 6.63562 32.6478 6.62837 32.6289C6.61689 32.6128 6.41422 32.9065 6.4252 32.8432C6.44415 32.7291 7.32023 31.6607 6.72177 32.5173C6.89753 32.2849 7.0901 32.2412 7.20377 32.0156C7.27835 31.8649 6.59304 32.5211 7.42837 31.4027C7.49552 31.4142 7.11857 31.8733 7.11443 31.8846C7.1076 31.9057 7.28193 31.8989 7.29823 31.8876C7.35855 31.8516 8.11089 30.6262 8.33703 30.3977C8.20331 30.4615 8.93318 29.4611 8.98615 29.3327C9.00021 29.299 8.88696 29.3872 8.90362 29.3522C9.0093 29.1345 9.4321 28.6329 9.60144 28.3733C9.78909 28.0864 9.73137 28.1019 9.74181 28.0858C9.82539 27.9605 9.7833 28.076 9.83314 27.9987C9.90437 27.8867 10.4416 27.0725 10.4634 27.0316C10.4697 27.0188 10.3445 27.1257 10.4532 26.9457C10.4751 26.9109 10.4945 26.9748 10.837 26.4241C11.2466 25.7718 10.4804 26.8323 10.6131 26.5366C10.9591 26.1664 10.8835 26.14 10.9644 26.033C10.9931 25.9957 11.2389 25.756 11.4662 25.4337C11.3112 25.667 11.1629 25.8977 11.0228 26.1203C11.1751 25.9181 11.4727 25.4717 11.6149 25.3018C11.6841 25.2187 11.6759 25.3207 11.8132 25.1337C11.842 25.0957 11.8518 24.8547 11.5359 25.3858C11.4679 25.3984 11.6666 25.178 11.7362 25.0636C11.7489 25.0433 11.7234 24.945 11.8807 24.8202C11.9185 24.7997 11.8027 25.2897 12.4386 24.2465C12.4594 24.2136 12.3506 24.2982 12.3704 24.2656C12.3771 24.2499 12.6087 23.9985 12.6324 23.9677C12.655 23.9357 12.5211 24.0398 12.5471 24.0012C12.6817 23.8013 12.9812 23.6597 12.6491 24.0105C12.7687 23.899 12.8888 23.7919 13.0102 23.6896C12.8275 23.7451 13.1514 23.5014 13.3593 23.3145C13.9367 22.7938 14.2296 22.6597 14.1492 22.671C14.098 22.6739 13.8603 22.7979 14.0081 22.6864C14.253 22.5097 14.3093 22.5216 14.3868 22.5125C14.486 22.5102 14.5079 22.4646 15.1477 22.2951C15.2045 22.2784 14.8506 22.3403 14.8555 22.3313C14.858 22.3268 14.936 22.2853 15.2279 22.2367C15.4957 22.2047 16.13 22.109 16.9222 22.5894C16.4802 22.3099 15.8739 22.1861 15.4095 22.235C15.5439 22.2656 16.0058 22.2482 16.4521 22.4037C16.6712 22.4759 16.8705 22.5771 17.0135 22.6654C17.135 22.7391 17.2084 22.794 17.2277 22.8092C17.6332 23.1606 17.6449 23.2437 17.735 23.3531C17.8258 23.4873 17.9204 23.5854 18.1635 24.0467C18.2053 24.1269 18.2698 24.3338 18.3404 24.5033C18.4544 24.7785 18.429 24.6469 18.2889 24.2699C18.1569 23.9047 17.9077 23.4848 17.8946 23.4413C17.9052 23.4375 18.1871 23.8641 18.3686 24.366C18.5248 24.7817 18.6131 25.1733 18.6192 25.2109C18.6493 25.4502 18.4041 24.4958 18.4102 24.6936C18.4813 24.7722 18.923 26.9548 18.9022 27.3026C18.9274 27.7467 18.8294 27.979 18.9572 27.9682C18.8431 28.1136 18.9371 28.2265 18.9406 28.2895C18.9471 28.4061 18.9521 28.5067 18.9564 28.5953L18.9061 28.303C18.8141 27.9986 18.6859 27.8817 18.6272 27.8206C18.5752 27.7724 18.555 27.7623 18.5446 27.7556C18.5303 27.7475 18.5585 27.7712 18.6938 27.823C18.7723 27.8529 18.8317 27.913 18.862 27.9169C18.8809 27.9192 18.8585 27.8699 18.9501 27.8873C19.0075 27.8986 19.2678 27.9824 19.507 28.0489C19.7639 28.121 20.029 28.1868 20.0573 28.2034C20.1252 28.2398 19.6546 28.1322 19.7305 28.1837C20.0725 28.26 20.4172 28.3113 20.7806 28.3711C20.9275 28.3952 20.8488 28.4082 20.9129 28.4184C20.9355 28.4233 21.4773 28.4759 21.4589 28.4634C21.383 28.4443 19.7885 28.1965 20.2157 28.2219C20.2937 28.2283 20.5821 28.3347 20.5456 28.2578C21.9809 28.5068 23.488 28.6549 25.0057 28.7778C24.1225 28.7662 23.1526 28.6412 22.2573 28.5462C22.1295 28.5333 21.7227 28.4778 21.7694 28.5182C22.5231 28.6203 23.5031 28.6929 24.224 28.771C24.2478 28.7736 24.1586 28.797 24.2474 28.8087C24.4117 28.8309 24.9717 28.8223 25.0545 28.8403C25.0693 28.8443 24.7641 28.8626 24.8549 28.8942C25.0881 28.9751 25.1565 28.8365 25.3633 28.852C25.5241 28.8655 26.6062 28.9973 26.8781 28.9672C27.1661 28.9374 26.0817 28.8974 26.1661 28.8637C26.8906 28.869 27.6453 28.9463 28.3398 28.9714C28.3522 28.9719 28.2457 28.9386 28.4022 28.9414C28.6746 28.9461 28.7483 28.9894 28.8772 29.0011C29.0172 29.0137 29.519 29.0269 29.5866 29.0437C29.5952 29.0459 29.4923 29.082 29.4768 29.0825C29.2573 29.091 29.1812 29.0363 29.1614 29.0349C29.0869 29.0301 29.0133 29.0471 28.9456 29.0433C28.834 29.0369 28.7745 29.0161 28.6235 29.0083C28.5201 29.0029 28.619 29.0424 28.5194 29.0367C28.4824 29.0347 28.0924 28.9364 28.0541 29.0178C28.0466 29.0507 31.2379 29.1949 31.5656 29.1767C31.2892 29.16 31.0138 29.1427 30.7397 29.1249C31.2971 29.1651 31.9702 29.1183 32.0158 29.213C34.0867 29.2698 36.1624 29.302 38.2386 29.32C38.6093 29.3292 38.4017 29.3836 39.015 29.3696C38.8547 29.3517 38.6978 29.3336 38.5416 29.3152C38.8545 29.3297 40.2339 29.3564 40.465 29.3448C40.494 29.3433 40.5354 29.2948 40.8818 29.2909C41.1882 29.2875 41.2367 29.3234 41.3988 29.3302C41.5313 29.3358 41.6944 29.3261 41.7346 29.3281C41.7665 29.3296 41.7795 29.3514 41.856 29.355C42.0968 29.3662 41.9013 29.3055 42.1401 29.3752C42.0824 29.378 42.0246 29.3808 41.9665 29.3837C42.257 29.3932 42.6463 29.4233 42.2253 29.4406C42.1526 29.4436 42.2148 29.4224 42.1604 29.4226C40.0246 29.4323 41.7306 29.4696 42.4761 29.4336C42.6534 29.4642 43.753 29.439 43.778 29.4449C43.8268 29.4533 43.6471 29.4787 43.8836 29.4981C43.9342 29.5024 45.3739 29.4744 44.8589 29.5181C44.7604 29.5271 44.0533 29.5244 43.8924 29.5266C44.2963 29.5875 45.1894 29.4887 45.3042 29.4902C45.729 29.4961 44.4926 29.5522 45.4468 29.5507C46.1713 29.5494 45.4921 29.514 45.7688 29.4936C45.9146 29.4827 46.7444 29.5204 46.7184 29.462C46.9954 29.4534 46.8336 29.4858 46.868 29.4877C46.8943 29.4895 47.454 29.4671 47.6337 29.4778C47.6554 29.4791 47.5879 29.5098 47.6103 29.512C47.6571 29.5157 48.1685 29.5056 48.2039 29.5028C48.2183 29.5009 48.0844 29.4759 48.1392 29.4691C48.2107 29.4611 48.7143 29.4641 48.7329 29.4569C48.7791 29.4452 48.157 29.4563 48.2573 29.4267C48.4086 29.4293 48.593 29.4253 48.762 29.4178C48.96 29.4099 49.125 29.399 49.216 29.3875C49.1746 29.394 48.8892 29.3956 48.7774 29.394C48.8433 29.3508 49.4333 29.3513 49.2328 29.3846C49.3556 29.3669 49.2718 29.3573 49.3396 29.3406C49.3535 29.3364 49.5684 29.3358 49.6007 29.3289C49.608 29.3274 49.3987 29.311 49.44 29.3026C49.4796 29.295 49.6544 29.2926 49.7946 29.2939C49.9623 29.2948 50.1347 29.3012 50.149 29.3041C50.2071 29.312 50.1383 29.315 50.0274 29.3196C49.9109 29.3242 49.7707 29.3309 49.7604 29.3395C49.7288 29.3414 50.1879 29.3826 50.1686 29.3871C50.2149 29.4187 49.7138 29.3876 49.7875 29.4184C49.8819 29.4255 50.0386 29.4333 50.1311 29.4426C49.6793 29.4604 48.9376 29.4509 48.7107 29.4863C49.3608 29.471 49.9705 29.4774 50.0061 29.5548C50.0058 29.5707 49.9345 29.5823 49.8525 29.5915C49.788 29.6006 49.7331 29.6071 49.7367 29.6112C49.748 29.6397 50.1796 29.6131 50.1662 29.6164C50.1759 29.6184 50.1801 29.6203 50.1801 29.622C50.1801 29.622 50.1801 29.622 50.1801 29.622C50.1801 29.622 50.1801 29.622 50.1801 29.622C50.1801 29.622 50.1801 29.622 50.1801 29.622C50.2057 29.6366 49.6379 29.6433 49.6255 29.6523C49.5837 29.6661 49.8106 29.7237 49.8061 29.7364C49.8092 29.7384 49.4282 29.7523 49.5576 29.7743C49.6254 29.7852 49.7385 29.7909 49.8247 29.7945C49.9375 29.798 50.0322 29.8001 50.0359 29.8013C50.0748 29.8085 49.9176 29.8126 49.7856 29.8181C49.6629 29.8233 49.5029 29.8291 49.4933 29.8331C49.4902 29.8369 49.7977 29.8608 49.7983 29.8681C49.8083 29.875 49.5883 29.8903 49.4825 29.9135C49.4087 29.9305 49.6233 29.942 49.585 29.9448C49.5449 29.9463 49.0196 29.9508 48.9855 29.9545C48.9447 29.9593 49.0756 29.9777 49.0565 29.9829C49.0315 29.9904 48.8466 29.9855 48.8703 29.9927C48.9048 29.9974 49.5592 30.0589 49.5735 30.0775C49.5512 30.1083 48.8397 30.0447 49.5135 30.1603C49.5206 30.161 49.6859 30.151 49.6882 30.1518C49.7869 30.1738 49.2769 30.2111 49.899 30.2022C48.6835 30.2508 49.7667 30.249 49.5834 30.3028C49.4984 30.3234 49.0596 30.3388 49.0523 30.3422C49.099 30.367 49.2411 30.3447 49.2863 30.3566C49.3183 30.3629 48.9105 30.3974 49.0018 30.4135C49.0612 30.4213 49.4619 30.4111 49.503 30.4126C49.6849 30.4269 49.4626 30.4477 49.5022 30.459C49.5353 30.4663 49.7909 30.464 49.7915 30.4656C49.8107 30.468 49.4581 30.5042 49.3651 30.5174C49.303 30.5271 49.5369 30.5369 49.4932 30.5414C49.244 30.5678 48.7607 30.5208 49.2373 30.5918C49.2644 30.5962 49.4394 30.5908 49.4538 30.5916C49.5713 30.6124 49.2262 30.6207 49.1741 30.6409C49.0765 30.6755 49.5371 30.6473 49.1531 30.6785C49.2996 30.6858 49.4088 30.6885 49.5486 30.6878C49.6919 30.6874 49.7598 30.6835 49.9803 30.6798C48.9621 30.7081 48.6656 30.8048 49.7405 30.7793C49.411 30.7836 49.4042 30.8313 49.3226 30.8341C49.2757 30.8356 48.7531 30.8018 48.9945 30.9016C49.0293 30.9139 49.3245 30.8893 49.2324 30.9188C48.4897 30.9319 49.2272 30.936 49.2186 30.9399C49.2043 31.0005 47.4181 31.0063 47.0876 31.0246C46.743 31.0447 46.4108 31.107 46.3291 31.1099C46.0648 31.1188 46.281 31.0854 46.2229 31.0777C46.1726 31.0699 45.4452 31.1449 45.4022 31.1435C45.256 31.1372 45.4036 31.1009 45.3884 31.0999C45.1978 31.0868 44.2349 31.1432 43.9469 31.1447C43.9465 31.1655 44.5211 31.1487 44.1658 31.1934C43.7603 31.2456 43.7438 31.1544 43.7315 31.1507C41.8877 31.2097 40.0383 31.2628 38.1894 31.3045C38.2116 31.3574 39.4206 31.2887 39.449 31.2947C39.6089 31.3318 37.5705 31.3803 37.3154 31.3653C37.5047 31.3729 37.6985 31.3803 37.889 31.3875C37.5604 31.4564 36.846 31.3917 36.3741 31.4277C36.2218 31.4396 36.5144 31.4581 36.5083 31.4598C36.3375 31.4874 36.0623 31.4739 36.2677 31.4374C35.8489 31.4764 35.911 31.4408 35.5917 31.4436C35.5752 31.4438 35.7124 31.4669 35.4597 31.4818C35.3416 31.4889 34.7084 31.4989 34.6233 31.5226C34.5884 31.5327 34.9101 31.6273 34.9496 31.5409C35.6381 31.571 35.1695 31.4983 35.4367 31.4958C35.4777 31.4955 35.3833 31.545 36.0557 31.5101C35.9269 31.5978 35.1541 31.5484 35.0204 31.5606C34.7469 31.5871 35.8747 31.611 36.0821 31.5401C35.9851 31.6083 36.1629 31.5475 36.4152 31.5451C36.6911 31.5423 36.571 31.5644 36.72 31.5613C37.127 31.5528 36.9582 31.5104 37.2927 31.5444C36.9639 31.4232 37.8702 31.5147 38.1336 31.5407C37.7055 31.558 37.2741 31.5747 36.8489 31.5909C36.8733 31.5971 36.8978 31.6033 36.9223 31.6096C36.8098 31.6112 36.6971 31.6127 36.5842 31.6143C36.6023 31.6073 36.6203 31.6004 36.6383 31.5935C36.0564 31.6487 35.912 31.6034 35.8656 31.6038C35.2577 31.6103 34.5489 31.6228 33.9322 31.6313C33.8395 31.6324 33.9029 31.6762 33.2276 31.65C33.0121 31.6414 33.216 31.6046 32.9714 31.6124C32.6645 31.7098 32.6707 31.6345 32.5797 31.6352C32.3186 31.6376 32.1591 31.6624 32.135 31.6628C31.8136 31.6691 31.3408 31.668 30.9851 31.6726C30.9785 31.673 31.1628 31.702 30.9324 31.6941C30.8498 31.6916 30.1333 31.5658 29.4927 31.6041C29.6577 31.6136 29.8233 31.6228 29.9895 31.6317C29.7905 31.6204 28.4376 31.6444 28.7678 31.6812C28.9686 31.704 29.467 31.6231 29.5205 31.7031C29.076 31.6827 26.5607 31.6862 26.3677 31.6573C26.341 31.654 26.5072 31.6308 26.4703 31.6266C26.4395 31.6235 25.8773 31.6161 25.7933 31.6028C25.747 31.5953 26.0079 31.5861 25.9858 31.5756C25.9671 31.5688 25.2408 31.5349 25.2007 31.5672C25.376 31.5597 25.8777 31.5865 25.6132 31.6073C25.5791 31.6099 25.4056 31.5826 25.3648 31.5857C24.9805 31.6157 26.1277 31.641 26.2899 31.6435C25.5828 31.6709 24.4823 31.5835 23.6608 31.5698C23.3354 31.5245 24.1505 31.5495 23.7804 31.5073C23.015 31.4178 23.5752 31.5371 23.5495 31.5395C23.3555 31.5601 22.6905 31.361 22.6855 31.4807C22.402 31.4435 22.513 31.4368 22.0944 31.4215C22.1481 31.434 22.2022 31.4465 22.2565 31.4589C21.7793 31.498 20.8703 31.231 20.9317 31.2211C21.144 31.2077 21.6135 31.3074 21.6585 31.3093C21.7162 31.3113 21.9186 31.2088 22.579 31.3649C22.8686 31.3049 21.4986 31.2277 22.1299 31.2201C21.6999 31.2058 20.0089 30.9653 19.722 30.9449C19.6929 30.9447 19.8115 31.051 19.399 30.9403C19.2048 30.8872 19.6829 30.9652 19.5959 30.931C19.5328 30.9031 19.1005 30.8298 18.5857 30.7069C18.4351 30.6706 18.277 30.6294 18.1206 30.5835C17.9698 30.5392 17.7951 30.4839 17.5965 30.4052C17.4047 30.3265 17.2256 30.2534 16.9586 30.0782C16.8276 29.9868 16.7376 29.9259 16.568 29.747C16.4083 29.5736 16.2522 29.3365 16.1714 29.0417C16.1599 28.996 16.1348 28.8605 16.1321 28.8134C16.0429 27.853 15.9264 27.1894 15.8655 26.8644C15.8576 26.8218 15.8877 26.8327 15.8797 26.7913C15.8527 26.6457 15.7347 26.2856 15.6762 26.028C15.7127 26.2681 15.6703 26.1535 15.6118 25.9704C15.5514 25.7816 15.4834 25.5947 15.4478 25.5031C15.3427 25.2421 15.3989 25.2677 15.3689 25.1936C15.3461 25.1356 15.2964 25.0926 15.3327 25.1336C15.3533 25.1709 15.5492 25.26 15.6512 25.2526C15.866 25.223 15.6227 25.3024 15.4862 25.3669C15.5864 25.4137 14.9924 25.7519 14.7387 26.0842C14.5692 26.2921 14.3681 26.6936 14.6434 26.4019C14.325 26.8123 14.0425 27.2675 13.7699 27.6982C13.7267 27.7668 13.7592 27.6539 13.6862 27.7722C13.6797 27.7832 13.6983 27.816 13.6359 27.9196C13.1147 28.7955 13.3198 28.3407 13.2014 28.4884C13.1361 28.5708 13.09 28.6341 13.0581 28.6818C13.3616 28.176 13.7216 27.5962 13.8185 27.4504C13.6742 27.5264 13.1237 28.5554 12.9337 28.8325C12.9269 28.8421 12.9135 28.7849 12.907 28.795C12.9069 28.7952 12.9067 28.7954 12.9066 28.7956C12.8366 28.9014 12.4208 29.6136 12.5517 29.4946C12.5849 29.4656 12.7838 29.1366 13.0128 28.7569C12.9577 28.8639 13.0438 28.8126 13.0344 28.8316C12.9189 29.0622 12.5493 29.5833 12.4285 29.772C12.4006 29.8155 12.428 29.8282 12.4237 29.8355C12.3116 30.0083 12.2823 29.8904 12.248 30.1191C11.9635 30.3832 12.5964 29.5105 12.4975 29.5409C12.4255 29.5553 11.2103 31.6248 11.2807 31.6686C11.2686 31.6709 11.2415 31.6932 11.1948 31.7446C11.0918 31.8587 10.7443 32.4358 10.6922 32.5469C10.6842 32.5655 10.7591 32.6045 10.7466 32.6259C10.7144 32.683 10.2171 33.3397 10.0751 33.6398C10.1793 33.5046 10.2874 33.3615 10.3871 33.2292C9.81961 34.0974 9.92415 33.9739 10.1383 33.7025C10.148 33.6882 10.16 33.676 10.1695 33.6623C10.3353 33.4467 10.5331 33.1723 10.5407 33.1725C10.5864 33.165 9.61216 34.6401 9.73451 34.3116C9.75545 34.2667 10.2356 33.6185 9.96533 33.9181C9.91908 33.9709 9.63761 34.4068 9.61124 34.4312C9.47844 34.5536 10.0759 33.5867 9.94743 33.6669C9.83882 33.9297 9.62288 34.1935 9.43948 34.4744C9.35842 34.5988 9.37163 34.6534 9.36158 34.6688C9.21046 34.8945 9.26419 34.7442 9.21162 34.8175C9.1875 34.8544 8.93271 35.3457 8.88931 35.1823C7.7939 36.6489 8.68116 35.6511 9.32071 34.7613C9.17064 35.054 8.70624 35.6079 8.51406 35.8421C8.44239 35.931 8.52976 35.9005 8.39663 36.0638C8.1891 36.3653 6.60243 37.9012 5.34193 37.9284C5.89615 37.8171 5.7226 37.8064 5.29903 37.8701C4.8597 37.9042 5.23263 37.9469 5.14709 37.9596C5.11727 37.9656 4.49253 38.0015 3.89357 37.7356C3.34642 37.5094 2.93469 37.099 2.83104 36.9979C3.35188 37.4944 3.67654 37.5796 3.62261 37.5451C3.59122 37.5095 3.1979 37.2824 2.83021 36.8818C2.92119 36.958 3.08307 37.0942 3.22417 37.1868C2.60883 36.7556 2.15625 35.7706 2.04958 35.5847C2.02781 35.5494 2.05554 35.7003 2.04345 35.6806C1.91339 35.4922 1.64725 34.7113 1.6425 34.7231C1.62116 34.7028 1.68976 34.9839 1.63503 34.8905C1.62322 34.8709 1.57906 34.5939 1.47593 34.3221C1.43756 34.221 1.41859 34.2949 1.40793 34.2696C1.32012 34.0544 1.42494 34.1719 1.29336 33.7558C1.20108 33.454 1.09301 33.3133 1.02242 32.9168C1.24418 34.1534 1.01626 33.1502 0.871988 32.599C0.849324 32.5096 0.78923 32.6093 0.715641 32.053C1.0853 33.181 0.715774 31.7126 0.685289 31.4908C0.683138 31.4757 0.731478 31.4632 0.709088 31.3291C0.707105 31.3176 0.676414 31.3398 0.65247 31.2141C0.431087 29.9878 0.595365 30.7673 0.591465 30.5278C0.590901 30.4775 0.558277 30.3091 0.52254 30.1236C0.484784 29.9318 0.447055 29.7243 0.43693 29.6373C0.432643 29.5986 0.469597 29.6131 0.452839 29.4637C0.423496 29.1995 0.367381 28.9603 0.353263 28.7903C0.352239 28.7699 0.406508 28.7672 0.371733 28.4396C0.362256 28.3474 0.337966 28.2436 0.327208 28.3759C0.289129 28.8076 0.450258 29.6365 0.472389 30.13C0.472502 30.1328 0.472609 30.1357 0.47271 30.1385C0.47777 30.2767 0.463048 30.247 0.439496 30.1342C0.380428 29.8761 0.30565 29.1482 0.30418 29.0939C0.301646 29.0665 0.353078 29.3465 0.33492 29.0596C0.319777 28.8193 0.195745 28.3866 0.207967 28.0216C0.208222 27.9927 0.286294 27.7062 0.291773 27.7204C0.294362 27.7295 0.322997 28.1725 0.345916 28.1077C0.347984 28.1007 0.340702 27.8168 0.358649 27.7836C0.379724 27.7394 0.593445 27.6222 0.598788 27.5645C0.611895 27.4154 0.562885 27.512 0.566465 27.4152C0.570761 27.208 0.658185 26.4846 0.586425 26.4615C0.576591 26.5792 0.567714 26.6953 0.559557 26.8168C0.576171 26.1555 0.535483 26.4364 0.524854 26.3417C0.514916 26.2402 0.578741 26.2729 0.598498 26.0512C0.598583 26.0019 0.663109 25.073 0.63712 25.0888C0.632233 25.6018 0.569853 25.4046 0.56565 25.428C0.552657 25.5154 0.588692 25.6382 0.578768 25.7591C0.514732 26.612 0.498677 25.7459 0.466937 25.9458C0.455978 26.0151 0.486854 26.1562 0.483285 26.1854C0.471519 26.2804 0.420375 26.2787 0.421323 26.3427C0.423812 26.4919 0.504432 26.3228 0.507704 26.3349C0.544897 26.4682 0.471467 26.9894 0.403894 26.6581C0.368873 26.8547 0.463906 26.8823 0.42241 27.0374C0.341822 27.3466 0.368285 26.8806 0.360932 26.7522C0.332166 26.2999 0.372181 26.1726 0.409029 25.5313C0.422912 25.3032 0.402599 25.0313 0.411329 24.925C0.41451 24.8581 0.653088 24.2518 0.402164 24.1977C0.457801 23.9595 0.681644 23.6089 0.715239 23.3597C0.745191 23.1354 0.643398 23.1896 0.643315 23.1681C0.643134 23.1341 0.696948 22.8678 0.700965 22.7755C0.705375 22.6668 0.660863 22.7128 0.678558 22.5417C0.724463 22.1153 0.816946 22.146 0.831265 22.1044C1.00567 21.6203 0.829143 21.8091 0.842085 21.6965C0.846258 21.5925 1.2472 20.1743 1.30538 19.873C1.28994 19.9995 1.27524 20.1257 1.26129 20.2517C1.37654 20.0522 1.3478 19.7957 1.45196 19.8223C1.29724 19.7292 1.53883 19.3141 1.57544 19.1818C1.58955 19.1291 1.55999 19.1241 1.57883 19.0583C1.6508 18.8012 1.86145 18.234 1.89535 18.091C2.0349 17.4704 1.41942 18.9667 1.38573 19.0884C1.45309 18.8464 1.87673 17.4615 1.58523 18.0642C1.54007 18.1577 1.55739 18.3565 1.54261 18.4122C1.44229 18.7897 1.4696 18.4755 1.45391 18.5024C1.42755 18.5486 1.41471 18.8146 1.38738 18.8764C1.37852 18.8972 1.35999 18.7386 1.25092 19.0932C1.24052 18.8999 1.61139 17.9159 1.6458 17.7835C1.65829 17.7361 1.42778 17.9783 1.84964 17.1797C1.83457 17.1851 1.81949 17.1904 1.80442 17.1958C1.97015 16.7233 2.1445 16.2569 2.329 15.7923C2.33475 15.854 2.28237 16.1358 2.40417 15.8045C2.47501 15.6138 2.359 15.7274 2.36434 15.7095C2.38709 15.5202 3.77138 12.5993 4.10352 12.0618C4.20258 11.8731 4.45203 11.3271 4.47508 11.2874C4.60386 11.0468 5.13556 10.241 5.23611 10.0753C5.29682 9.97092 5.18859 10.0368 5.24881 9.94735C5.30498 9.86432 5.29392 9.98166 5.31186 9.95786C5.44904 9.75631 6.45499 8.16901 6.78161 7.84895C6.59497 8.05623 5.89863 9.22809 5.95025 9.23041C5.95763 9.22824 6.17831 8.98152 6.20128 8.91446C6.30328 8.8505 6.4112 8.45142 6.55857 8.29949C6.57545 8.28256 6.58328 8.40586 6.81949 8.11398C6.9008 8.01382 7.05594 7.70375 7.32259 7.48204C7.57757 7.05209 9.40407 5.18534 9.49524 5.01076C9.49555 5.00308 9.21178 5.24667 9.36334 5.04104C9.56631 4.76872 9.4673 5.09827 9.75415 4.83574C9.7929 4.79297 10.5747 4.04172 10.6002 4.01293C10.7868 3.72036 10.0485 4.33427 10.0554 4.31884C10.0574 4.27553 10.6406 3.72595 10.6708 3.71228C10.6978 3.69741 10.2903 4.21842 10.8466 3.67014C10.7695 3.717 10.6926 3.76439 10.6159 3.81229C10.8737 3.54822 10.9563 3.59309 11.0269 3.53963C11.2457 3.37704 11.4025 3.07756 11.8518 2.93415C11.9705 2.89682 11.8446 3.05391 11.8602 3.05009C12.0057 3.01043 12.0573 2.77652 12.295 2.74449C12.3144 2.74258 11.9527 3.08852 12.6535 2.5815C12.5986 2.60686 12.5437 2.63249 12.489 2.65839C12.5712 2.56263 13.2891 2.05416 13.3941 1.99923C13.6971 1.82649 13.4821 2.05683 13.7736 1.86368C13.523 1.88417 14.4336 1.32345 14.4284 1.44285C14.4969 1.26157 15.3518 0.911596 15.7447 0.740754C15.9923 0.62538 16.4884 0.359989 16.5728 0.334862C16.6744 0.302669 16.6736 0.39116 16.8582 0.339831C16.9087 0.325318 17.4281 0.064317 17.9351 0.00141966C18.0335 -0.0116686 18.2664 0.0676162 18.1038 0.152227C17.8265 0.294227 17.2452 0.37543 17.2791 0.453214C17.3147 0.530713 18.0337 0.235282 18.2407 0.19336C19.1889 -0.0094285 18.6708 0.232364 18.7024 0.251588C18.7806 0.301261 19.2885 0.179899 19.3119 0.183502C19.4054 0.191446 19.056 0.325782 19.0608 0.369711C19.067 0.423496 19.5725 0.417066 19.4656 0.459739C19.3133 0.516503 18.8533 0.539894 18.8261 0.552459C18.4766 0.698582 19.0041 0.693661 19.153 0.72629C19.1984 0.735638 19.0416 0.805314 19.077 0.802886C19.6158 0.768758 19.1476 0.599 19.5022 0.54125C19.8195 0.493702 19.4314 0.658115 19.4451 0.660865C19.4613 0.661509 19.8358 0.59245 19.8994 0.613061C19.9269 0.616081 18.9999 0.98021 19.0613 1.04845C19.3577 0.959991 19.6588 0.880454 19.9614 0.810891C20.0011 0.900644 19.5519 0.912745 19.5085 0.933879C19.4218 0.972158 19.6842 0.967954 19.6789 1.00063C19.6761 1.02056 19.3961 1.14841 19.6667 1.12252C19.7595 1.11456 19.9392 1.00856 20.2846 1.02541C19.1428 1.31318 19.9556 1.22574 19.9925 1.25297C20.0303 1.28102 19.5034 1.45639 20.1582 1.32689C20.2165 1.50844 20.1533 1.38708 19.9731 1.45251C19.7539 1.5363 20.2867 1.49038 19.4539 1.61228C19.519 1.68359 20.1766 1.55295 20.2136 1.55824C20.2447 1.55957 20.1048 1.62648 20.1596 1.63236C20.8024 1.70583 20.3667 1.69398 20.56 1.77584C20.5772 1.78097 21.1606 1.75449 20.7221 1.82149C19.9294 1.95261 19.5755 1.91958 19.5013 2.20476C20.0966 2.18665 20.7711 1.92758 20.9541 1.90783C21.2274 1.87621 20.9495 1.95883 20.9849 1.97082C20.9975 1.97396 21.2304 1.94793 21.234 1.95251C21.4189 2.13416 20.1947 2.06163 19.825 2.18788C19.9315 2.19803 20.0372 2.20961 20.1424 2.22255C20.007 2.24692 19.8716 2.27354 19.7367 2.30228C20.3934 2.23909 19.761 2.3178 19.6387 2.51418C19.6113 2.55751 20.0128 2.40838 19.5614 2.60889C19.9146 2.55787 19.8093 2.61356 20.117 2.51007C20.1188 2.57286 19.4281 2.78452 19.1655 2.89291C20.1504 2.73908 19.5484 2.61855 20.4212 2.59696C20.5672 2.49169 20.1613 2.57068 20.1925 2.5531C20.3048 2.48479 20.593 2.51607 20.9172 2.30921C20.9709 2.27551 20.7211 2.21425 21.0769 2.182C21.1163 2.17823 21.3473 2.23345 21.3443 2.23952C21.3189 2.29899 21.0966 2.2962 21.0899 2.32158C21.0835 2.3446 21.3278 2.30993 21.3293 2.31677C21.3424 2.38819 21.1271 2.36109 21.1598 2.3813C21.2331 2.42362 22.1135 2.51239 20.9744 2.55964C21.9121 2.39838 21.0883 2.45883 20.7214 2.53997C20.6284 2.55979 20.6105 2.60544 20.48 2.63934C20.3123 2.68306 20.1104 2.6971 20.0238 2.72133C19.9319 2.74858 20.4834 2.74401 19.7072 2.86547C20.1172 2.87721 20.7932 2.66763 21.1917 2.70921C21.9795 2.79346 20.6674 2.92514 20.537 2.97462C20.5016 2.98342 20.6309 3.02407 20.6073 3.03101C20.5687 3.0361 19.8315 3.13546 19.7707 3.20325C19.7093 3.26434 20.0366 3.14695 20.0689 3.19314C20.0879 3.21735 19.2351 3.46516 19.7087 3.38407C20.0319 3.32549 20.612 3.09894 20.7342 3.23393C20.2583 3.30658 19.7861 3.4088 19.32 3.53884C19.5908 3.52727 19.8596 3.52537 20.126 3.53307C19.6064 3.64637 19.1385 3.70106 18.6743 3.92811C19.8939 3.75442 18.3384 4.16781 18.3333 4.2108C18.3326 4.22235 18.8303 4.20832 18.9093 4.21476C18.521 4.37102 17.3584 4.86412 18.1108 4.7566C17.9714 4.76609 17.7099 4.97851 17.7174 4.98399C17.7856 5.03369 18.4156 4.73972 18.335 4.84662C18.242 4.96639 18.0306 4.9285 17.8454 5.01387C16.9068 5.47244 17.3457 5.70434 16.4061 6.1379C16.4314 6.13985 16.4566 6.14188 16.4818 6.144C15.4862 6.67457 14.524 7.3365 13.613 8.09405C13.3381 8.47573 12.4937 9.37527 12.0696 9.82125C11.9828 9.90669 11.529 10.3181 11.4911 10.3481C11.4186 10.3987 11.7252 10.0423 11.5549 10.1761C11.515 10.2009 10.8228 10.9764 10.9231 10.962C11.0026 10.876 11.2119 10.5778 11.2626 10.5429C11.5951 10.2667 9.53717 12.7374 9.51639 12.9263C9.57405 12.8784 9.63184 12.8309 9.68976 12.7837C9.56487 12.945 9.44138 13.1081 9.31937 13.273ZM12.5822 2.3045C12.6682 2.16035 13.0114 1.9869 13.1901 1.84866C13.4347 1.65493 13.7651 1.14873 13.6998 1.49588C13.3132 1.75627 12.9443 2.02421 12.5822 2.3045ZM7.75195 6.66945C7.9683 6.46758 7.92558 6.73331 7.72794 6.87997C7.70614 6.89618 7.46085 6.94517 7.75195 6.66945ZM9.92632 4.45041C9.91831 4.46018 9.73 4.63569 9.72221 4.64057C9.51627 4.75911 10.0855 4.22948 9.92632 4.45041ZM2.07584 16.7476C2.18341 16.4502 1.99193 16.6195 1.96748 16.8227C1.96597 16.8354 2.06867 16.7672 2.07584 16.7476ZM2.15898 16.539C2.34416 16.3512 2.33069 15.81 2.20466 16.1834C2.19221 16.2198 2.14981 16.5478 2.15898 16.539ZM8.48402 5.91416C8.4938 5.96833 8.27337 6.18269 8.18167 6.27239C8.1535 6.24325 8.40127 6.01204 8.48402 5.91416ZM4.12271 12.1371C4.1422 12.1629 4.64851 11.2623 4.65047 11.1802C4.5806 11.3292 4.10027 12.111 4.12271 12.1371ZM2.98097 14.5227C2.99641 14.5012 3.13824 14.1746 3.10852 14.1715C3.00067 14.3127 2.90938 14.619 2.98097 14.5227ZM1.15408 19.4349C1.156 19.4555 1.39474 19.2502 1.1126 19.8246C1.07142 19.9092 1.11717 19.577 1.10247 19.6068C1.07183 19.6699 1.05161 19.7209 1.03883 19.7629C1.10384 19.4749 1.18541 19.1773 1.20403 19.1524C1.29156 19.0343 1.15319 19.4255 1.15408 19.4349ZM0.618849 22.1484C0.633472 22.2142 0.54508 22.5917 0.518645 22.676C0.513867 22.6905 0.453585 22.6112 0.428015 22.784C0.408062 22.9226 0.517703 22.7311 0.459094 22.9969C0.400202 23.2703 0.410663 22.8919 0.402797 22.9165C0.391822 22.9459 0.353872 23.3799 0.313998 23.3587C0.282977 23.3437 0.380743 22.8881 0.394447 22.7783C0.411525 22.634 0.32707 22.7966 0.382217 22.5602C0.417336 22.4115 0.49473 22.5138 0.50536 22.4831C0.512997 22.4577 0.56427 21.9223 0.618393 22.1491C0.618544 22.1489 0.618698 22.1486 0.618849 22.1484ZM1.0216 19.841C1.02437 19.8187 1.02966 19.7931 1.03883 19.7629C1.0329 19.7891 1.02724 19.8152 1.0216 19.841ZM11.9018 2.86489C11.7566 2.93309 12.1011 2.61407 12.272 2.54623C12.2933 2.57403 11.9244 2.85277 11.9018 2.86489ZM1.02553 20.1258C0.891391 20.5399 0.938633 20.222 1.0216 19.841C1.0063 19.9652 1.07134 19.9868 1.02553 20.1258ZM6.20128 8.91446C6.18425 8.92509 6.16759 8.92762 6.1505 8.91708C6.19636 8.88982 6.20842 8.89321 6.20128 8.91446ZM5.5943 9.74531C5.45168 10.0733 5.84167 9.47533 5.80476 9.45511C5.78976 9.44724 5.59968 9.73193 5.5943 9.74531ZM1.9288 17.1262C1.9453 17.0985 1.93552 17.6252 2.06337 16.9037C1.91034 17.2565 2.03388 16.8695 2.0179 16.8695C1.9704 16.8681 1.78794 17.4902 1.72498 17.6184C1.76059 17.7505 1.87407 17.2186 1.92852 17.1269C1.92861 17.1267 1.9287 17.1264 1.9288 17.1262ZM0.0258217 27.1421C-0.0160358 27.0516 0.00328815 26.7606 0.0131115 26.5705C0.0523548 26.6589 0.0300471 26.9497 0.0258217 27.1421ZM30.7087 31.7033C29.5045 31.7302 29.3449 31.6173 30.4509 31.6622C30.4723 31.6632 30.782 31.6921 30.7087 31.7033ZM20.2459 31.2588C20.1413 31.1911 20.5123 31.2295 20.7681 31.2789C20.8252 31.2903 21.0361 31.3671 20.7872 31.3515C20.8017 31.2879 20.4291 31.2213 20.2459 31.2588ZM1.01162 20.3771C1.03042 20.5123 0.897445 20.8855 0.84288 21.0841C0.829188 20.9514 0.949258 20.5476 1.01162 20.3771ZM26.7325 31.612C26.6046 31.6055 26.517 31.6473 26.5388 31.6515C26.6366 31.6704 26.8778 31.6398 26.7325 31.612ZM1.36069 19.1649C1.39574 19.1563 1.27837 19.6637 1.19442 19.6757C1.2293 19.5709 1.33774 19.1699 1.36069 19.1649ZM0.0556265 26.7774C0.0727752 26.695 0.0896637 27.1269 0.074813 27.2556C0.0420418 27.2449 0.0431353 26.832 0.0556265 26.7774ZM24.6776 31.5668C24.5591 31.5584 24.2676 31.5448 24.2348 31.5615C24.1928 31.5827 24.6213 31.5928 24.6776 31.5668ZM45.8568 31.272C45.8724 31.2775 45.435 31.338 45.23 31.334C44.8506 31.326 45.8492 31.268 45.8568 31.272ZM27.9425 31.6099C28.3017 31.6553 27.9026 31.6107 27.9173 31.6541C28.1584 31.6589 28.7674 31.6666 28.3503 31.6203C28.2691 31.6113 28.0551 31.6142 27.9425 31.6099ZM27.6122 31.5908C27.5734 31.6042 27.3152 31.6446 27.5374 31.6448C27.6402 31.6448 27.8078 31.5981 27.6122 31.5908ZM43.1362 31.3834C42.822 31.363 44.2682 31.33 44.3275 31.3332C44.3503 31.3352 44.3651 31.3374 44.3736 31.3394C44.4289 31.3277 44.7071 31.3162 44.7389 31.3394C44.6568 31.3404 44.4282 31.3507 44.4011 31.3489C44.3895 31.3482 44.3809 31.3474 44.375 31.3465C44.2633 31.3718 43.2067 31.3873 43.1362 31.3834ZM40.6998 31.4284C41.0674 31.3699 41.1315 31.4487 41.1004 31.4522C40.7028 31.4976 40.9615 31.4299 40.9494 31.4275C40.9218 31.4237 40.6374 31.46 40.7009 31.4284C40.7005 31.4284 40.7002 31.4284 40.6998 31.4284ZM42.6343 31.3872C42.6481 31.3857 42.9541 31.3779 42.9696 31.3787C43.2226 31.3966 42.3527 31.4191 42.6343 31.3872ZM0.380433 24.2226C0.335514 24.4579 0.3105 24.2157 0.350893 24.0648C0.354663 24.0523 0.420384 24.0191 0.380433 24.2226ZM27.4364 31.5976C27.3873 31.5918 26.0609 31.5373 26.1433 31.5926C26.247 31.591 27.7599 31.6469 27.4364 31.5976ZM17.1669 30.4254C17.4599 30.564 17.1414 30.4921 16.9024 30.3167C16.8277 30.2609 17.0706 30.3799 17.1669 30.4254ZM1.63766 18.5249C1.67416 18.2681 1.79982 18.3673 1.68298 18.5601C1.67841 18.5677 1.63625 18.535 1.63766 18.5249ZM19.3304 31.0798C18.4239 30.9408 18.7148 30.8389 19.7833 31.0675C19.748 31.0702 19.7129 31.0728 19.6779 31.0754C20.9622 31.2788 19.7451 31.1042 19.4576 31.0633C19.3446 31.0486 19.4336 31.0929 19.3313 31.0802C19.331 31.0801 19.3307 31.0799 19.3304 31.0798ZM15.8842 28.2586C15.9142 27.7391 15.9664 28.2582 16.0065 28.8231C16.0095 28.8749 16.0372 29.0242 16.0498 29.0746C16.1675 29.5261 16.4669 29.85 16.6306 29.9923C16.7903 30.1336 16.931 30.221 17.0349 30.2797C16.8303 30.1713 16.665 30.0813 16.4205 29.8252C16.1819 29.5764 16.0376 29.2359 15.9961 29.0891C15.983 29.0367 15.9542 28.8813 15.951 28.8274C15.9446 28.8033 15.94 28.8008 15.9372 28.8285C15.9404 28.8829 15.9695 29.0398 15.9827 29.0927C16.0016 29.1752 16.0433 29.3311 16.1478 29.5261C16.2385 29.7101 16.4633 29.9778 16.6089 30.1014C16.3689 29.9171 16.0411 29.4898 15.9499 29.1016C15.9363 29.0474 15.9066 28.8868 15.9033 28.8311C15.8452 28.2007 15.9169 28.5381 15.9172 28.4984C15.9168 28.4472 15.8823 28.2903 15.8842 28.2586ZM18.1785 30.7956C18.2279 30.8077 18.6267 30.9318 18.7395 30.9489C18.5854 30.9694 17.8179 30.7228 18.1785 30.7956ZM38.1434 31.5211C38.1708 31.4939 38.2396 31.4727 38.5019 31.476C38.4211 31.4914 38.2534 31.507 38.1434 31.5211ZM12.9817 2.38514C13.1516 2.27255 13.5027 2.07014 13.3671 2.08796C13.3524 2.09 12.9632 2.35633 12.9817 2.38514ZM23.597 31.4482C23.5697 31.4449 22.5317 31.3789 22.8855 31.436C22.9923 31.4551 23.9194 31.5001 23.597 31.4482ZM28.8122 31.5935C28.7321 31.5927 28.3838 31.5949 28.3773 31.6019C28.3526 31.6264 28.7784 31.6168 28.8122 31.5935ZM13.8777 1.8744C13.9025 1.86319 14.4377 1.53755 14.3657 1.5493C14.2256 1.56711 13.7874 1.90476 13.8777 1.8744ZM0.391269 25.0965C0.388125 25.146 0.331506 25.2057 0.329381 25.2228C0.321455 25.258 0.274064 26.1806 0.234493 25.8238C0.220174 25.757 0.369382 24.4589 0.406742 24.2866C0.483656 24.2307 0.349275 24.781 0.344094 24.9174C0.343021 24.9414 0.399189 24.9637 0.391018 25.0961C0.391101 25.0962 0.391187 25.0963 0.391269 25.0965ZM39.5171 31.4574C39.5553 31.4318 40.5457 31.3878 40.5391 31.4174C40.1898 31.4311 39.8595 31.4443 39.5171 31.4574ZM39.0079 31.4669C38.7928 31.4549 39.2962 31.4361 39.4427 31.4398C39.4448 31.4564 39.0397 31.4687 39.0079 31.4669ZM26.9096 31.4585C26.8076 31.4635 27.1191 31.5124 27.0489 31.5191C27.0035 31.5234 26.777 31.5027 26.7047 31.5143C26.6839 31.5182 26.9134 31.563 26.9809 31.5625C27.0764 31.5621 26.9849 31.529 27.0892 31.5308C27.4401 31.5371 27.7293 31.5636 28.0526 31.5672C28.0816 31.5675 27.8576 31.5427 28.1047 31.5463C28.1429 31.5468 28.3716 31.5822 28.6709 31.5801C29.3164 31.486 29.8051 31.5866 30.6251 31.5509C30.5935 31.542 29.9806 31.5163 29.9414 31.5149C29.249 31.4973 28.0054 31.4829 27.2902 31.4683C27.1012 31.4646 27.1923 31.4879 27.111 31.4871C27.0469 31.4864 27.1242 31.4481 26.9096 31.4585ZM12.9149 2.47989C13.0349 2.48504 13.2902 2.25683 13.4749 2.14322C13.3754 2.12805 13.0979 2.37226 12.9149 2.47989ZM34.5266 31.5333C34.4291 31.5362 34.1277 31.5294 34.1027 31.5407C34.0707 31.5556 34.5058 31.5584 34.5266 31.5333ZM0.460309 30.307C0.463288 30.3179 0.498001 30.5749 0.49773 30.5841C0.485008 30.8198 0.380949 30.0473 0.460309 30.307ZM2.25444 36.3749C2.41555 36.6067 2.61 36.8093 2.64024 36.9093C2.51861 36.7765 2.2062 36.3675 2.25444 36.3749ZM10.5753 33.0938C10.5089 33.0953 10.8322 32.6532 10.8912 32.5668C10.8917 32.6134 10.6238 33.0936 10.5753 33.0938ZM38.1039 31.4065C38.4298 31.401 38.3603 31.3471 38.5664 31.3673C38.5998 31.3708 38.71 31.4834 38.3528 31.449C38.2883 31.4427 38.5402 31.4093 38.1039 31.4065ZM19.9622 31.0946C20.057 31.0774 20.3344 31.1231 20.5048 31.1451C20.4643 31.1635 20.1029 31.1128 19.9622 31.0946ZM14.8897 1.36464C15.0744 1.34375 15.771 0.943279 15.5727 0.986385C15.5431 0.990661 14.9889 1.31156 14.8897 1.36464ZM0.994456 21.2869C0.972207 21.5985 1.1312 20.9817 1.13593 20.7729C1.11581 20.8626 0.995386 21.2659 0.994456 21.2869ZM9.4617 34.6876C9.46923 34.6751 9.66565 34.4064 9.67581 34.3946C9.86941 34.1974 9.31309 34.9585 9.4617 34.6876ZM1.36945 34.2564C1.44192 34.3823 1.67549 35.117 1.75958 35.3748C1.58268 35.1447 1.27718 34.1404 1.36945 34.2564ZM36.7609 31.4518C36.9936 31.4459 37.2129 31.4482 37.426 31.4532C37.3811 31.4733 36.7861 31.4658 36.7609 31.4518ZM10.1383 33.7025C10.148 33.6882 10.16 33.676 10.1695 33.6623C10.1589 33.6761 10.1484 33.6894 10.1383 33.7025ZM31.5448 31.5038C31.3482 31.4963 31.3887 31.5337 31.4008 31.5348C31.5491 31.5465 31.7655 31.512 31.5448 31.5038ZM13.18 2.42947C13.2782 2.44151 13.5533 2.19959 13.7435 2.10007C13.663 2.0881 13.3157 2.32852 13.18 2.42947ZM15.871 27.5048C15.8855 27.2825 16.0561 28.149 16.0472 28.3828C16.0241 28.3847 15.8716 27.5188 15.871 27.5048ZM1.30829 20.3789C1.3555 20.3711 1.42044 19.9309 1.37566 20.0153C1.34648 20.0689 1.27826 20.3835 1.30829 20.3789ZM16.2223 29.3497C16.3021 29.5129 16.4588 29.7337 16.5767 29.8589C16.6799 29.9723 16.7185 30.0152 16.6517 29.9712C16.4483 29.8678 16.1591 29.2672 16.2223 29.3497ZM25.469 31.394C25.4263 31.3885 24.8733 31.3978 25.0996 31.4353C25.2567 31.4612 25.2844 31.4207 25.3218 31.4219C25.3615 31.424 26.262 31.5026 25.469 31.394ZM15.3126 25.7009C15.4259 25.5646 15.5613 25.4633 15.6436 25.4003C15.6305 25.4293 15.3937 25.6511 15.3126 25.7009ZM0.924621 22.0449C0.947116 21.9893 1.28798 20.5835 1.04615 21.3726C1.03002 21.417 0.837555 22.1918 0.924621 22.0449ZM38.1039 31.4065C38.0628 31.4072 38.0153 31.4071 37.9601 31.406C38.0149 31.4057 38.0625 31.4062 38.1039 31.4065ZM34.395 31.4719C34.4702 31.4523 34.0916 31.4523 33.9798 31.4635C33.9453 31.4869 34.3847 31.4747 34.395 31.4719ZM15.6312 25.367C15.6831 25.3095 15.7596 25.2852 15.7495 25.287C15.7809 25.296 15.6894 25.35 15.6312 25.367ZM11.0082 32.1631C11.153 31.9573 11.309 31.6888 11.2861 31.6688C11.2928 31.6668 11.3034 31.6591 11.3182 31.6444C11.3331 31.6296 11.4619 31.3915 11.5311 31.2969C11.9532 30.7301 10.1361 33.6292 11.1079 31.8961C11.0748 31.9851 11.0415 32.0742 11.0082 32.1631ZM1.14785 33.178C1.15151 33.0293 1.00697 32.6213 1.01588 32.7329C1.02131 32.8158 1.14319 33.3321 1.14785 33.178ZM6.65799 37.3507C6.60488 37.3874 6.06397 37.6701 6.03204 37.69C6.4125 37.5892 6.93008 37.2228 6.65799 37.3507ZM0.939355 32.0011C0.929077 31.9165 0.843356 31.8191 0.842396 31.8295C0.834094 31.9167 0.93341 32.1622 0.939355 32.0011ZM37.4241 31.3143C37.2926 31.3056 36.8747 31.3427 36.783 31.371C36.766 31.3662 36.7201 31.3604 36.6358 31.3539C36.6361 31.3539 36.6363 31.3539 36.6366 31.3539C36.52 31.3484 33.1217 31.3847 35.4031 31.4042C35.4744 31.4047 35.377 31.382 35.667 31.3816C35.6862 31.3816 35.6958 31.4012 35.7549 31.4012C35.8887 31.4012 36.6209 31.4003 36.7654 31.3816C36.7667 31.3851 36.7761 31.3884 36.7962 31.3912C36.9759 31.4156 37.525 31.321 37.4241 31.3143ZM7.5047 36.7252C7.42188 36.786 7.17782 36.9954 7.16536 37.0357C7.30507 36.9541 7.70059 36.5877 7.5047 36.7252ZM1.05568 22.0278C1.1146 21.8666 1.16161 21.4473 1.10942 21.5651C1.07622 21.6359 0.98713 22.2112 1.05568 22.0278ZM3.46008 37.3797C3.82493 37.6263 4.12869 37.719 4.2697 37.759C4.41489 37.7976 4.42283 37.7936 4.37674 37.779C4.2828 37.7527 3.99032 37.6332 4.14699 37.6651C3.87478 37.5887 3.66818 37.4972 3.46008 37.3797ZM41.6243 31.2716C41.4764 31.2704 41.6497 31.219 41.8115 31.2395C41.8622 31.246 41.7069 31.2721 41.6243 31.2716ZM48.1503 31.0443C48.0252 31.0109 48.6386 31.0134 48.4017 31.0464C48.3922 31.0476 48.161 31.0454 48.1503 31.0443ZM43.5961 31.1804C43.499 31.2107 43.4366 31.2161 43.1569 31.2181C43.5691 31.1974 43.1881 31.1853 43.5961 31.1804ZM11.2807 31.6686C11.283 31.6682 11.2849 31.6677 11.2861 31.6688C11.2838 31.6695 11.2821 31.6693 11.2807 31.6686ZM0.774876 31.1629C0.796771 31.0415 0.741098 30.7062 0.714786 30.8122C0.712238 30.8233 0.736017 31.1209 0.774876 31.1629ZM36.783 31.371C36.7981 31.3753 36.7905 31.3784 36.7654 31.3816C36.7642 31.3782 36.7707 31.3749 36.783 31.371ZM1.15829 32.9285C1.12455 32.9265 1.23392 33.4188 1.24325 33.4334C1.36662 33.6907 1.2075 33.1411 1.15829 32.9285ZM1.97141 18.7839C1.97602 18.7577 1.84005 18.8909 1.84215 19.0008C1.84375 19.0856 1.95405 18.8816 1.97141 18.7839ZM44.5356 31.1391C44.69 31.1342 44.9025 31.1271 44.9416 31.1465C44.8419 31.1467 44.5333 31.1545 44.5356 31.1391ZM47.9148 31.0249C47.7512 31.0537 47.3109 31.0682 47.0569 31.073C47.0329 31.0426 47.7662 31.0372 47.9148 31.0249ZM37.8433 31.3189C37.8309 31.3178 37.4434 31.3152 37.4964 31.3379C37.5744 31.3713 37.9525 31.3294 37.8433 31.3189ZM1.69506 19.5189C1.672 19.7019 1.8785 19.328 1.86729 19.1266C1.86103 19.0218 1.69846 19.4866 1.69506 19.5189ZM0.667953 30.0891C0.646448 29.9969 0.639063 30.0291 0.641417 30.1086C0.645893 30.2431 0.677321 30.4993 0.710853 30.5476C0.697951 30.4409 0.689315 30.2067 0.671188 30.1048C0.670146 30.0991 0.669069 30.0938 0.667953 30.0891ZM5.6231 37.6609C4.93715 37.7391 4.73509 37.6708 4.78807 37.7259C4.83648 37.7687 5.11755 37.8214 5.24439 37.7969C5.2863 37.7976 5.66095 37.6601 5.6231 37.6609ZM16.8409 0.800966C16.9401 0.738433 16.5144 0.824408 16.4826 0.894395C16.463 0.936442 16.7773 0.839476 16.8409 0.800966ZM13.0581 28.6818C13.0429 28.707 13.0278 28.7321 13.0128 28.7569C13.0228 28.7375 13.0374 28.7129 13.0581 28.6818ZM0.665004 27.8494C0.503146 28.3993 0.640327 28.3386 0.640254 28.3857C0.64251 28.4876 0.607894 28.7261 0.629359 28.916C0.594539 28.6992 0.563283 28.4801 0.535541 28.2589C0.51291 28.43 0.583804 29.9642 0.630879 29.9899C0.674796 30.031 0.60507 29.5558 0.608616 29.5407C0.611394 29.52 0.713601 29.4353 0.713578 29.3907C0.702415 29.311 0.62965 28.0579 0.665004 27.8494ZM2.90512 36.7864C3.00469 36.9102 3.04572 37.0041 3.12429 37.0606C3.15312 37.0809 3.18243 37.0564 3.28072 37.1228C3.14176 37.0173 2.99028 36.874 2.90512 36.7864ZM0.513589 26.8815C0.568184 26.7299 0.534896 27.4184 0.531739 27.4394C0.495635 27.5569 0.465796 27.0069 0.513589 26.8815ZM1.13556 32.6666C1.13209 32.645 1.03492 32.1014 1.00925 32.1072C1.01605 32.266 1.16526 32.9689 1.13556 32.6666ZM3.39898 37.2093C3.5301 37.3088 3.73178 37.4426 3.90885 37.5228C4.10797 37.6148 4.26667 37.6499 4.2348 37.6108C4.23426 37.6107 4.23372 37.6105 4.23318 37.6103C3.89144 37.5094 3.64383 37.3779 3.39898 37.2093ZM1.66053 20.1553C1.854 19.8634 1.68009 19.9772 1.56829 20.2538C1.59088 20.3536 1.62902 20.2033 1.66053 20.1553ZM2.04035 19.1515C2.0828 19.069 2.36481 18.1527 2.26554 18.2722C2.22818 18.3148 2.10371 18.8557 2.09332 18.8785C2.07612 18.9133 2.06925 18.7258 1.9921 19.0098C2.01754 19.0002 2.02464 19.1798 2.04035 19.1515ZM1.80164 19.9082C1.97226 19.6125 1.85042 19.496 1.77898 19.7369C1.75122 19.831 1.77729 19.9504 1.80164 19.9082ZM1.44153 21.2181C1.48308 21.1053 1.58093 20.7995 1.58945 20.5738C1.51006 20.8577 1.43407 21.1445 1.36282 21.4294C1.38229 21.4691 1.40466 21.317 1.44172 21.2173C1.44166 21.2176 1.44159 21.2178 1.44153 21.2181ZM49.804 30.7951C49.6954 30.7871 49.7579 30.779 49.8749 30.774C50.0155 30.769 50.1337 30.7691 50.1398 30.7716C50.2059 30.7876 49.9332 30.8014 49.804 30.7951ZM19.3408 1.71898C19.4156 1.72287 19.4751 1.7775 19.6222 1.71099C19.4569 1.69484 19.2906 1.68186 19.1234 1.67208C19.0294 1.81123 19.2591 1.71411 19.3408 1.71898ZM20.0098 2.00414C19.9889 2.01108 20.1368 2.15991 19.8402 2.09753C19.6356 2.05141 20.6476 1.79684 20.8462 1.86415C20.6444 1.92122 20.1905 1.94687 20.0098 2.00414ZM21.8395 2.57131C21.8509 2.5838 21.4832 2.62122 21.4403 2.61565C21.2118 2.57805 21.775 2.49467 21.8395 2.57131ZM20.659 2.63415C20.8359 2.64539 20.4574 2.71642 20.3415 2.71667C20.325 2.68556 20.6315 2.63174 20.659 2.63415ZM47.2424 29.8565C47.0349 29.8123 46.8756 29.9166 47.1676 29.8916C47.1833 29.8904 47.2515 29.8587 47.2424 29.8565ZM21.4903 2.76545C21.3171 2.74202 21.6943 2.69617 21.809 2.71362C21.8205 2.74517 21.5164 2.76783 21.4903 2.76545ZM47.0981 29.7459C46.8416 29.715 46.9331 29.8285 46.966 29.8326C47.0846 29.8492 47.585 29.7971 47.6727 29.7851C46.9601 29.8118 47.2184 29.7605 47.0981 29.7459ZM45.8792 29.8317C45.6421 29.8475 46.2402 29.8628 46.3807 29.8284C46.2451 29.8319 45.9505 29.8271 45.8792 29.8317ZM44.3799 29.8138C44.2442 29.8113 43.8444 29.8057 43.7837 29.8253C43.9197 29.8204 44.3247 29.8338 44.3799 29.8138ZM44.0719 29.7612C43.8632 29.7378 43.8177 29.8131 44.0538 29.7882C44.0634 29.7872 44.0797 29.7625 44.0719 29.7612ZM42.907 29.746C42.7643 29.7171 42.6173 29.7921 42.8352 29.792C42.9024 29.7918 42.9218 29.7493 42.907 29.746ZM46.7714 29.6265C46.5773 29.6164 46.3234 29.6692 46.7426 29.6697C46.5974 29.679 46.4486 29.6884 46.2964 29.698C46.8588 29.7188 46.8063 29.6507 46.9615 29.6518C47.1726 29.6535 47.1554 29.7101 47.1145 29.7284C47.3103 29.6911 48.049 29.6819 48.5072 29.671C48.107 29.6607 47.5002 29.6424 47.098 29.6379C46.994 29.6363 46.8912 29.653 46.7993 29.6523C46.6513 29.6511 46.7823 29.6272 46.7722 29.6265C46.7719 29.6265 46.7717 29.6265 46.7714 29.6265ZM41.3753 29.7575C40.9799 29.7251 41.2315 29.7991 41.4533 29.784C41.4628 29.7829 41.3851 29.7583 41.3753 29.7575ZM21.994 3.27866C21.5206 3.22374 21.8508 3.0894 20.8788 3.32844C21.282 3.18117 20.8929 3.25141 20.9691 3.20134C21.0308 3.16078 21.2804 3.16609 21.1303 3.11255C21.3246 3.15922 22.1384 3.11023 22.1768 3.1287C22.1765 3.1287 22.1761 3.1287 22.1758 3.1287C22.1977 3.13594 22.1448 3.29989 21.994 3.27866ZM44.3743 29.625C44.239 29.5385 44.181 29.6786 43.9201 29.608C43.5672 29.7175 44.9009 29.599 45.0456 29.6857C43.6384 29.6909 45.9798 29.7627 44.993 29.6417C45.8195 29.6806 45.2633 29.6225 45.3904 29.6045C45.5313 29.5852 45.9912 29.5998 45.9658 29.5682C45.9656 29.5682 45.9653 29.5682 45.9651 29.5682C45.689 29.5731 45.3971 29.5783 45.1074 29.5834C45.3821 29.6502 44.816 29.6353 44.6173 29.5799C44.5369 29.5949 44.4559 29.6099 44.3743 29.625ZM45.9803 29.6733C45.957 29.6719 45.3372 29.6887 45.3751 29.7023C45.4676 29.71 46.3264 29.6893 45.9803 29.6733ZM48.6953 29.6291C48.4925 29.6304 48.1356 29.621 48.0052 29.6475C48.2464 29.645 48.5865 29.6546 48.6953 29.6291ZM37.2852 29.7051C37.003 29.7288 37.8739 29.7371 37.6216 29.7083C37.6092 29.707 37.2977 29.704 37.2852 29.7051ZM43.7302 29.6443C43.4458 29.6197 43.5824 29.7048 43.7911 29.6803C43.8032 29.6789 43.7433 29.6454 43.7302 29.6443ZM21.6134 3.31618C21.5995 3.36284 20.9192 3.38054 20.7981 3.40156C20.8595 3.34011 21.6295 3.25145 21.6134 3.31618ZM49.0977 29.5536C48.8691 29.5198 48.6074 29.5241 48.4003 29.537C48.1893 29.5499 47.9992 29.572 47.9756 29.5712C47.9141 29.5699 48.0099 29.5381 47.9959 29.5374C47.9733 29.5356 47.2803 29.5447 47.236 29.5475C47.2106 29.5495 47.3441 29.5921 47.1931 29.6077C47.4968 29.5788 48.7551 29.5829 48.8154 29.5784C48.8667 29.5744 48.4644 29.5315 49.0969 29.5536C49.0972 29.5536 49.0974 29.5536 49.0977 29.5536ZM47.819 29.5631C47.9881 29.5798 47.5152 29.5866 47.3882 29.5812C47.1192 29.5688 47.8055 29.5609 47.819 29.5631ZM46.6494 29.5576C46.5972 29.5539 46.0734 29.5555 46.0432 29.5766C46.2679 29.6016 46.7825 29.5659 46.6494 29.5576ZM41.0631 29.6048C40.9342 29.6083 40.5745 29.5921 40.5538 29.612C40.6857 29.6087 41.0434 29.6246 41.0631 29.6048ZM19.4067 4.04553C19.5968 4.03644 19.1832 4.15585 19.0573 4.17534C19.0419 4.14748 19.3901 4.04499 19.4067 4.04553ZM43.6788 29.463C43.6051 29.458 42.0311 29.4807 41.8071 29.4904C42.0268 29.5048 43.5865 29.497 43.6544 29.4892C43.6747 29.487 43.6885 29.4639 43.6788 29.463ZM47.0787 29.429C47.213 29.4015 47.3249 29.4322 47.3407 29.4325C47.5295 29.4349 47.8894 29.4264 47.8105 29.4523C47.5048 29.4442 46.7917 29.4841 47.0787 29.429ZM40.9498 29.4734C40.4171 29.4855 41.44 29.5136 41.3042 29.4836C41.2959 29.4818 41.0052 29.4722 40.9498 29.4734ZM43.8513 29.4539C43.9692 29.4309 45.5455 29.4392 45.8022 29.4367C45.5799 29.4789 45.3879 29.4499 45.0811 29.4543C45.0016 29.4555 45.0231 29.4723 45.0145 29.4724C44.8761 29.4742 44.9794 29.4538 44.8937 29.4541C44.8489 29.4542 43.6767 29.487 43.8513 29.4539ZM47.1568 29.41C47.2706 29.3934 48.2203 29.3811 48.2826 29.3847C48.5741 29.4122 47.2567 29.414 47.1568 29.41ZM43.7089 29.4176C43.864 29.3687 44.6691 29.396 44.1217 29.4234C44.0656 29.426 43.855 29.4062 43.7089 29.4176ZM41.0059 29.4253C40.9808 29.4239 40.4217 29.4143 40.4109 29.4305C40.4947 29.4368 41.3043 29.4411 41.0059 29.4253ZM41.2912 29.3708C41.2778 29.3712 41.4076 29.4017 41.1492 29.3982C41.1274 29.3979 41.0879 29.3632 40.7597 29.3761C40.6931 29.3788 40.5896 29.402 40.5971 29.4034C40.9458 29.4578 41.9534 29.3519 41.2912 29.3708ZM47.1754 29.3842C47.1187 29.3713 47.2546 29.3306 47.374 29.3498C47.4249 29.3581 47.3317 29.3825 47.1754 29.3842ZM39.2397 29.4108C39.5653 29.3846 38.5413 29.3769 38.4944 29.3833C38.5246 29.4007 39.2069 29.4136 39.2397 29.4108ZM19.1196 4.60082C19.1198 4.60077 19.12 4.60071 19.1202 4.60065C18.8982 4.65131 19.0182 4.56473 19.0076 4.56605C18.518 4.63979 18.6782 4.71183 18.6102 4.74683C18.4654 4.82651 18.443 4.68857 18.2021 4.83735C18.6039 4.60251 18.2235 4.77717 18.1933 4.73749C18.0734 4.56834 18.8056 4.61629 19.0085 4.51944C19.0374 4.50442 18.7928 4.5125 18.8654 4.4716C19.1073 4.33152 19.9724 4.42719 19.1196 4.60082ZM47.4653 29.3457C47.5305 29.3335 47.8026 29.3317 48.012 29.3359C48.2543 29.3395 48.4278 29.349 48.2998 29.3592C48.2403 29.3625 47.2871 29.3809 47.4653 29.3457ZM8.77686 29.9907C8.87184 29.781 8.54915 30.2026 8.51888 30.2974C8.50382 30.3453 8.73509 30.0834 8.77686 29.9907ZM6.59275 32.8541C6.44982 33.0462 6.39575 33.3467 6.57546 33.0899C6.59343 33.0641 6.62675 32.8448 6.59275 32.8541ZM18.7827 28.4316C18.8048 28.1072 18.7227 28.1352 18.7409 28.3683C18.7472 28.4514 18.782 28.4419 18.7827 28.4316ZM10.5363 27.1523C10.5176 27.1745 10.3379 27.4602 10.3627 27.4616C10.442 27.3629 10.6583 27.0072 10.5363 27.1523ZM18.8015 28.5338C18.7853 28.4227 18.766 28.4885 18.7667 28.6099L18.7224 28.3526C18.6677 28.1617 18.5488 28.0005 18.5105 27.9341C18.5504 27.9699 18.7016 28.1453 18.7567 28.3434L18.8021 28.6072C18.8023 28.5679 18.8024 28.54 18.8015 28.5338ZM43.1164 29.2882C42.97 29.3133 42.5707 29.307 42.3435 29.3117C42.3194 29.2795 42.943 29.2947 43.1164 29.2882ZM7.29284 32.0217C7.17998 32.242 7.51168 31.8311 7.44369 31.8416C7.43748 31.8462 7.29707 32.0134 7.29284 32.0217ZM26.1932 28.9574C26.0084 28.9709 26.5909 29.0356 26.4319 28.9849C26.4238 28.9828 26.203 28.9567 26.1932 28.9574ZM28.782 29.0945C28.6383 29.0814 28.0299 29.0581 28.2659 29.0908C28.3017 29.0959 28.7713 29.1153 28.782 29.0945ZM18.6153 4.80137C18.701 4.85193 18.344 4.95584 18.289 4.9637C18.2664 4.96554 18.5014 4.73418 18.6153 4.80137ZM18.5822 26.444C18.5525 26.2769 18.4916 25.8726 18.4533 25.8123C18.4959 25.9887 18.5433 26.5031 18.5822 26.444ZM7.9422 31.0879C7.77088 31.2387 7.56799 31.5411 7.68239 31.5091C7.9083 31.1717 7.59658 31.5162 7.9422 31.0879ZM18.6033 27.8927C18.5457 27.8623 18.4967 27.9036 18.4984 27.9082C18.5233 27.9548 18.6587 27.9432 18.6033 27.8927ZM12.3858 24.5134C12.3584 24.4994 12.1064 24.8379 12.1563 24.8057C12.1728 24.7933 12.4078 24.5219 12.3858 24.5134ZM38.1408 29.2707C37.9669 29.2508 38.4972 29.236 38.6525 29.2585C38.729 29.2902 38.1634 29.2731 38.1408 29.2707ZM21.4174 28.5125C21.4345 28.478 20.8639 28.4197 21.0832 28.4821C21.1365 28.4979 21.4088 28.5243 21.4174 28.5125ZM26.9826 28.9283C26.5862 28.9513 28.2446 29.0609 27.8101 28.9881C27.7809 28.9836 27.0189 28.9272 26.9826 28.9283ZM29.6946 29.0707C29.6262 29.0637 29.662 28.9509 29.9458 29.0048C29.983 29.0118 29.8077 29.0359 29.8382 29.0438C29.8569 29.0487 30.4724 29.0849 30.4998 29.0829C30.5302 29.0809 30.495 29.0435 30.5258 29.0404C30.5604 29.0371 30.938 29.0805 31.1373 29.0865C31.5125 29.0977 31.554 29.0688 31.5848 29.0696C31.674 29.0718 31.8233 29.0969 32.0042 29.1015C32.9183 29.1249 34.3161 29.1275 35.0435 29.198C34.3963 29.1642 33.7821 29.1792 33.1403 29.1743C33.3293 29.1175 32.1943 29.201 32.8581 29.1449C32.5496 29.1569 29.924 29.0966 29.6953 29.0707C29.6951 29.0707 29.6948 29.0707 29.6946 29.0707ZM5.94373 33.5533C6.00252 33.4152 5.51069 33.9473 5.52321 34.0086C5.58256 33.9743 5.94598 33.5653 5.94373 33.5533ZM8.05328 30.5101C8.08947 30.4391 8.04304 30.3258 8.31354 30.0095C8.31375 30.0092 8.31395 30.0089 8.31416 30.0086C8.39324 29.9158 8.33869 30.044 8.35832 30.0303C8.36576 30.0258 8.61559 29.7366 8.45063 30.0035C8.19956 30.4084 8.36176 30.0008 8.22144 30.2117C8.20464 30.2375 7.98685 30.6647 8.01171 30.649C8.01448 30.6474 8.08537 30.5201 8.10291 30.5028C8.16824 30.439 8.17119 30.4923 8.17942 30.4827C8.20503 30.4525 8.57664 29.7884 8.67794 29.7179C8.70935 29.7003 8.05687 30.7571 8.01952 30.7941C7.99817 30.8169 7.93057 30.7577 7.90551 30.7793C7.89246 30.7917 7.6426 31.2187 7.60025 31.2645C7.58785 31.2782 7.57777 31.2883 7.57017 31.2956C7.63639 31.2492 7.37992 31.6145 7.36093 31.5859C7.35526 31.5731 7.53871 31.3226 7.54506 31.3168C7.54851 31.3134 7.5519 31.3107 7.55481 31.308C7.4898 31.3467 8.07823 30.4819 7.90966 30.6409C8.05787 30.3705 7.94688 30.7172 8.05328 30.5101ZM8.81878 29.2437C8.80916 29.2755 8.79954 29.3073 8.78993 29.3391C9.06602 28.8723 9.44729 28.3602 9.7931 27.8262C9.88069 27.6912 9.73287 27.8169 9.8606 27.6483C9.96307 27.5132 10.113 27.3772 10.0708 27.4628C10.0597 27.4849 9.84189 27.7582 9.7517 27.9039C9.48351 28.337 9.59406 28.2546 9.57897 28.2802C9.56261 28.308 9.35847 28.5628 9.26653 28.7081C9.03339 29.0765 8.95138 29.2599 8.59557 29.7353C8.75502 29.4316 8.59392 29.5524 8.81878 29.2437ZM23.8565 28.6547C23.8773 28.6319 24.2228 28.6823 24.3525 28.6885C24.3301 28.7115 23.9806 28.6618 23.8565 28.6547ZM8.37673 14.5766C8.37057 14.4552 7.97187 15.1117 8.12076 14.9627C8.15318 14.9294 8.32696 14.6588 8.37673 14.5766ZM6.75054 17.6178C6.72385 17.7183 6.93821 17.3597 6.89336 17.3406C6.87834 17.3347 6.75358 17.6047 6.75054 17.6178ZM13.3716 23.1588C13.39 23.1357 13.7339 22.877 13.7498 22.8739C13.9917 22.7288 12.8987 23.6063 13.3716 23.1588ZM5.35214 21.5635C5.41357 21.2106 5.09613 22.2377 5.23718 21.9354C5.24346 21.9204 5.34896 21.579 5.35214 21.5635ZM4.97488 23.0019C4.9922 22.9177 5.10428 22.5562 5.08784 22.5478C5.05997 22.5324 4.93416 22.9484 4.97488 23.0019ZM18.7061 27.7602C18.6928 27.7058 18.9991 27.8622 19.1763 27.9009C19.1836 27.9554 18.8091 27.8038 18.7061 27.7602ZM18.7655 25.9316C19.0036 27.2312 18.9807 27.6246 18.9673 27.559C18.9552 27.5189 18.9312 27.3405 18.8971 27.0664C18.8612 26.7791 18.7978 26.2824 18.715 25.7943C18.746 25.7851 18.7353 25.7804 18.7655 25.9316ZM18.6 27.6709C18.5989 27.6875 18.6149 27.7 18.6734 27.7558C18.7466 27.8241 18.9066 28.013 18.9805 28.2829L19.0333 28.5894C19.0325 28.5733 19.0318 28.5577 19.031 28.5426C19.035 28.5484 19.0389 28.5647 19.0425 28.5886L18.9895 28.2805C18.9566 28.1151 18.8208 27.8726 18.7221 27.7776C18.6297 27.6831 18.6105 27.6817 18.6 27.6709ZM8.93911 13.8529C8.91865 13.994 8.55017 14.4542 8.58332 14.3537C8.58979 14.3296 8.93583 13.7938 8.93911 13.8529ZM13.5516 22.9526C13.5146 22.9516 13.6456 22.8268 13.9323 22.643C14.1945 22.4714 14.5444 22.3335 14.5995 22.3219C14.8517 22.2585 14.4795 22.3735 14.1755 22.5417C14.0163 22.6267 13.8574 22.7275 13.7361 22.8131C13.635 22.8836 13.5658 22.938 13.5516 22.9526ZM21.4634 28.3048C21.592 28.286 21.8942 28.3433 22.1113 28.3686C22.007 28.3874 21.6466 28.3302 21.4634 28.3048ZM19.9946 28.0393C20.0043 28.0404 20.2741 28.0949 20.2886 28.0987C20.5051 28.1755 19.743 28.0215 19.9946 28.0393ZM19.5836 5.10107C19.5764 5.10459 19.398 5.147 19.3912 5.1468C19.2152 5.13054 19.753 5.00323 19.5836 5.10107Z" fill="#C9673A"/>
<path d="M58.5979 19.6695C59.7096 19.5899 60.7172 19.611 61.7256 20.1409C65.2502 21.9932 65.0434 28.4385 61.4152 30.0765C61.0438 30.2441 60.5047 30.3813 60.1044 30.4927C52.4897 31.1736 52.4301 20.6769 58.5979 19.6695Z" fill="#C9673A"/>
<path d="M58.6876 20.8099C63.9356 20.4765 63.9562 28.4357 59.7586 29.3385C55.4826 29.6489 54.6457 24.1588 57.1473 21.6285C57.544 21.2276 58.1575 20.9942 58.6876 20.8099Z" fill="#FBF6EA"/>
<path d="M74.0865 23.7274C74.4134 23.7988 74.6217 23.7998 74.8263 24.0502C74.8633 24.334 74.8586 24.4388 74.9844 24.6902C75.7012 24.5769 76.3 23.6055 77.2577 23.7531C81.3547 24.3855 80.4079 30.6936 76.1575 30.4593L74.9607 30.1232C74.9503 31.1507 75.0365 32.8192 74.9211 33.8582C74.8957 34.0877 74.5757 34.2305 74.374 34.3105C73.8525 34.2324 73.6376 33.9848 73.6302 33.4239C73.5899 30.4022 73.6303 27.3776 73.5912 24.3559C73.5876 24.0731 73.8904 23.8902 74.0865 23.7274Z" fill="#C9673A"/>
<path d="M76.7654 24.8683C77.2429 24.8607 77.5487 25.0987 77.9455 25.3435C78.5957 26.6615 78.539 27.6881 77.7631 28.9337C77.4499 29.1347 77.1768 29.2423 76.8389 29.3889C75.9545 29.3985 75.7866 29.3356 74.9813 28.9414C74.8656 26.9567 74.9267 25.8673 76.7654 24.8683Z" fill="#FBF6EA"/>
<path d="M66.1365 23.7131C67.0283 23.7922 66.9924 23.8902 67.1708 24.6711C67.7588 24.6216 68.3555 23.8198 69.1146 23.8122C73.2221 23.7664 73.0137 30.2727 68.5996 30.4612C68.1696 30.3841 67.5942 30.2098 67.1594 30.0917C67.1507 31.1288 67.5537 33.7467 66.6601 34.3181C66.0418 34.3086 65.9131 34.0248 65.9105 33.423C65.8977 30.4203 65.8928 27.4167 65.864 24.414C65.8613 24.135 65.9784 23.9293 66.1365 23.7131Z" fill="#C9673A"/>
<path d="M68.9522 24.8645C70.9361 24.8188 71.4133 28.4147 69.0298 29.387C68.1016 29.3889 67.9596 29.3547 67.1643 28.8699C67.1446 26.9881 67.0928 25.7806 68.9522 24.8645Z" fill="#FBF6EA"/>
<path d="M100.921 19.6108C101.11 19.618 101.475 19.6372 101.575 19.7721C102.12 20.5038 101.813 23.9788 101.781 24.9311C105.275 21.8275 107.725 25.9101 105.673 29.1747C104.645 30.6555 102.17 31.0031 100.979 29.5889C100.61 29.1528 100.476 27.2662 100.499 26.6796C100.583 24.5169 100.537 22.3504 100.635 20.1912C100.644 19.9878 100.801 19.7669 100.921 19.6108Z" fill="#C9673A"/>
<path d="M103.589 24.9606C105.783 25.1006 105.395 28.708 103.367 29.3918C101.058 29.2908 101.557 26.7453 102.659 25.5359C102.909 25.2616 103.253 25.1168 103.589 24.9606Z" fill="#FBF6EA"/>
<path d="M84.3056 23.756C87.9604 23.5446 86.954 26.0568 87.1889 28.5585C87.2965 29.7032 87.8406 29.107 88.4043 29.568C88.4936 30.7346 86.3734 30.9107 85.9113 29.2213L85.8852 29.1232L85.7538 29.1518C84.9871 30.0765 84.7269 30.1822 83.5928 30.5632C82.9382 30.3917 82.6741 30.2841 82.0507 30.007C80.2762 27.789 81.5477 24.3816 84.3056 23.756Z" fill="#C9673A"/>
<path d="M84.2916 24.7902C87.0409 24.4188 85.5592 28.2966 84.1018 29.3366C81.7616 29.4289 82.5423 26.6158 83.4294 25.4454C83.6484 25.1568 83.9809 24.973 84.2916 24.7902Z" fill="#FBF6EA"/>
<path d="M161.537 23.756C165.391 23.595 163.799 26.372 164.225 28.7804C164.293 29.1708 165.59 29.4575 165.525 30.0813C164.818 30.7603 163.986 30.3746 163.309 29.9765C163.206 29.667 163.105 29.3566 163.008 29.0442L162.868 29.0585C162.113 30.1308 162 30.1813 160.656 30.547C160.31 30.4612 159.724 30.3098 159.438 30.107C157.939 29.0432 158.202 26.7158 159.12 25.3606C159.745 24.4397 160.455 23.9731 161.537 23.756Z" fill="#C9673A"/>
<path d="M161.448 24.8007C162.756 24.7026 163.058 25.2254 162.827 26.5396C162.631 27.6452 162.164 28.6937 161.202 29.3394C158.975 29.4908 159.756 26.7043 160.511 25.5673C160.724 25.2463 161.121 25.0092 161.448 24.8007Z" fill="#FBF6EA"/>
<path d="M139.435 23.7617C143.284 23.5103 141.686 26.4139 142.133 28.7337C142.277 29.4746 142.862 29.2261 143.349 29.5127C143.454 29.8346 143.452 29.6956 143.375 30.0298C143.12 30.3203 142.707 30.4355 142.341 30.5774C141.906 30.3727 141.644 30.2146 141.235 29.9622C141.131 29.6451 141.065 29.348 140.863 29.087L140.703 29.1947C140.057 30.1079 139.676 30.2098 138.637 30.5441C135.949 29.9813 135.787 27.6119 136.997 25.4416C137.495 24.5483 138.432 23.9769 139.435 23.7617Z" fill="#C9673A"/>
<path d="M139.444 24.7959C140.96 24.7283 140.956 25.6558 140.668 26.9377C140.437 27.9604 139.99 28.8118 139.062 29.3604C136.859 29.3661 137.691 26.472 138.58 25.4092C138.803 25.1425 139.141 24.9635 139.444 24.7959Z" fill="#FBF6EA"/>
<path d="M148.145 23.7988C148.549 23.8388 148.635 23.7988 148.923 24.0607C149.145 24.3969 149.118 24.8873 149.137 25.3025C149.452 24.8368 149.605 24.634 150.041 24.2797C151.096 23.4236 152.386 23.7979 152.768 25.1444L152.798 25.2549C153.481 24.6111 155.039 22.9217 156.057 24.195C157.018 25.3987 156.531 27.1967 156.79 28.5766C156.896 29.1404 157.352 29.5727 157.265 30.1498C157.016 30.3984 156.263 30.5908 156.029 30.3632C154.888 29.2556 155.8 26.9643 155.3 25.5511C155.15 25.1264 154.964 25.1121 154.664 24.9702C152.058 26.4529 153.85 30.9517 152.049 30.4308C151.031 29.3394 152.335 25.7996 151.003 25.0844C148.889 25.1159 149.631 29.8451 148.657 30.4927C147.328 30.4051 148.02 27.8605 147.924 26.8691C147.845 26.0491 147.689 24.4254 148.145 23.7988Z" fill="#C9673A"/>
<path d="M123.412 19.6752C124.439 19.5926 127.439 19.7039 127.133 21.3256C126.765 21.8589 126.429 21.7847 125.942 21.4466C122.838 19.2904 120.281 22.4018 120.395 25.4825C120.512 28.6376 122.885 30.1965 125.684 28.9194C126.079 28.608 126.319 28.3671 126.815 28.3318C127.167 28.4528 127.059 28.3604 127.239 28.6537C127.347 30.8479 122.32 30.986 120.72 29.6346C117.85 27.211 118.282 22.318 121.398 20.3267C122.052 19.9088 122.677 19.7793 123.412 19.6752Z" fill="#C9673A"/>
<path d="M112.72 23.8093C112.934 23.8379 113.083 23.8883 113.287 23.9493C113.456 24.1426 113.575 24.2597 113.569 24.5816C113.504 26.9129 113.676 29.5699 113.154 31.8421C112.603 33.9534 110.183 35.2695 108.379 33.6744C107.425 32.8335 107.94 31.8697 109.131 32.7306C111.608 34.5219 112.07 31.3907 112.12 29.4794L112.027 29.4146C111.649 29.846 110.944 30.4374 110.351 30.4603C107.994 30.5536 107.806 28.1005 107.812 26.3501C107.814 25.7139 107.664 24.4997 108.12 24.0207C108.466 23.8636 108.319 23.8845 108.682 23.9198C109.769 24.8226 108.62 27.9414 109.7 28.988C110.974 30.2213 111.952 27.6719 112.039 26.7186C112.125 25.7854 112.097 24.475 112.72 23.8093Z" fill="#C9673A"/>
<path d="M129.414 19.5113C129.763 19.5391 129.868 19.524 130.124 19.7511C130.433 20.3077 130.327 24.3321 130.34 25.2959C130.617 24.8559 130.793 24.6131 131.203 24.3026C131.73 23.9055 132.396 23.7426 133.046 23.8521C135.439 24.2474 134.188 28.5718 134.769 29.3556C135.246 29.5537 135.346 29.5194 135.302 30.0079C135.089 30.2384 134.756 30.4955 134.431 30.4936C133.11 30.4832 133.317 28.7785 133.336 27.8957C133.323 27.1891 133.394 25.3006 132.734 25.1035C130.436 24.4169 130.418 28.6956 130.242 30.0584C130.196 30.4155 129.603 30.4841 129.24 30.3032C128.862 29.8013 129.079 25.2435 129.049 24.2912C129.008 22.9741 129.038 21.2657 129.085 19.9336C129.088 19.8622 129.346 19.5892 129.414 19.5113Z" fill="#C9673A"/>
<path d="M91.7185 23.7664C92.4994 23.7112 92.8834 23.7969 93.6366 23.995C93.7741 24.1236 93.9044 24.2597 94.0272 24.4026C94.2668 24.6778 94.3697 24.8445 94.3467 25.1844C93.3874 25.5559 91.0177 23.6893 91.0992 25.5768C91.5545 26.5672 94.3381 26.7815 94.4841 28.3709C94.644 30.1127 93.1194 30.4822 91.7386 30.5574C90.8265 30.4812 89.0944 29.9356 89.5851 28.7137C89.8702 28.4623 89.73 28.5242 90.1158 28.4871C90.4822 28.608 90.5891 28.8347 90.8196 29.1566C91.6756 29.5832 92.2964 29.748 93.1192 29.1004C93.5134 28.2538 91.7396 27.5567 91.1197 27.2281C88.9886 26.0958 89.2241 24.1588 91.7185 23.7664Z" fill="#C9673A"/>
<path d="M144.972 23.9236C145.153 23.9264 145.348 23.9436 145.53 23.956C146.362 24.5159 145.638 27.9271 145.895 28.9442C145.973 29.2528 146.169 29.5365 146.291 29.8356C146.223 30.1803 146.169 30.1327 145.854 30.3993C145.512 30.4517 145.438 30.4774 145.122 30.347C144.104 29.4594 144.547 25.7244 144.658 24.4102C144.666 24.3083 144.894 24.0188 144.972 23.9236Z" fill="#C9673A"/>
<path d="M145.013 20.9289C145.323 20.8165 145.671 20.8854 145.914 21.1079C146.157 21.3304 146.257 21.6694 146.174 21.9885C146.09 22.3084 145.836 22.5541 145.515 22.6284C145.058 22.7332 144.598 22.4637 144.464 22.0142C144.332 21.5647 144.572 21.0889 145.013 20.9289Z" fill="#C9673A"/>
<path d="M55.7896 11.757V5.97705L54.5294 6.73965V5.8143L55.7896 5.061H56.6312V11.757H55.7896ZM60.7349 11.8965C60.3009 11.8965 59.9134 11.7989 59.5724 11.6036C59.2345 11.4052 58.9663 11.137 58.7679 10.7991C58.5726 10.4581 58.475 10.0706 58.475 9.6366V7.1814C58.475 6.7474 58.5726 6.3599 58.7679 6.0189C58.9663 5.6779 59.2345 5.40975 59.5724 5.21445C59.9134 5.01915 60.3009 4.9215 60.7349 4.9215C61.1689 4.9215 61.5564 5.01915 61.8974 5.21445C62.2384 5.40975 62.5065 5.6779 62.7018 6.0189C62.8971 6.3599 62.9948 6.7474 62.9948 7.1814V9.6366C62.9948 10.0706 62.8971 10.4581 62.7018 10.7991C62.5065 11.137 62.2384 11.4052 61.8974 11.6036C61.5564 11.7989 61.1689 11.8965 60.7349 11.8965ZM60.7349 11.1014C60.9984 11.1014 61.2371 11.0378 61.451 10.9107C61.6649 10.7836 61.8354 10.6131 61.9625 10.3992C62.0896 10.1822 62.1531 9.9435 62.1531 9.6831V7.13025C62.1531 6.86675 62.0896 6.62805 61.9625 6.41415C61.8354 6.20025 61.6649 6.02975 61.451 5.90265C61.2371 5.77555 60.9984 5.712 60.7349 5.712C60.4745 5.712 60.2358 5.77555 60.0188 5.90265C59.8049 6.02975 59.6344 6.20025 59.5073 6.41415C59.3802 6.62805 59.3166 6.86675 59.3166 7.13025V9.6831C59.3166 9.9435 59.3802 10.1822 59.5073 10.3992C59.6344 10.6131 59.8049 10.7836 60.0188 10.9107C60.2358 11.0378 60.4745 11.1014 60.7349 11.1014ZM65.5632 13.989V13.1985H65.8329C66.0747 13.1985 66.2591 13.1381 66.3862 13.0172C66.5133 12.8963 66.5769 12.7041 66.5769 12.4406V6.735H67.4046V12.7242C67.4046 13.1365 67.2976 13.4496 67.0837 13.6635C66.8729 13.8805 66.5598 13.989 66.1444 13.989H65.5632ZM66.5769 5.84685V4.99125H67.4046V5.84685H66.5769ZM70.2522 11.8965C69.8771 11.8965 69.5624 11.8283 69.3082 11.6919C69.0571 11.5524 68.8665 11.3695 68.7363 11.1432C68.6092 10.9169 68.5456 10.6689 68.5456 10.3992C68.5456 10.1357 68.5952 9.90785 68.6944 9.71565C68.7967 9.52035 68.9393 9.35915 69.1222 9.23205C69.3051 9.10185 69.5237 8.99955 69.7779 8.92515C70.0166 8.86005 70.2832 8.80425 70.5777 8.75775C70.8753 8.70815 71.176 8.6632 71.4798 8.6229C71.7836 8.5826 72.0672 8.54385 72.3307 8.50665L72.0331 8.6787C72.0424 8.2323 71.9525 7.90215 71.7634 7.68825C71.5774 7.47435 71.255 7.3674 70.7962 7.3674C70.4924 7.3674 70.2258 7.43715 69.9964 7.57665C69.7701 7.71305 69.6105 7.93625 69.5175 8.24625L68.7316 8.0091C68.8525 7.5689 69.0866 7.22325 69.4338 6.97215C69.781 6.72105 70.2382 6.5955 70.8055 6.5955C71.2612 6.5955 71.6518 6.67765 71.9773 6.84195C72.3059 7.00315 72.5415 7.24805 72.6841 7.57665C72.7554 7.73165 72.8004 7.9006 72.819 8.0835C72.8376 8.2633 72.8469 8.4524 72.8469 8.6508V11.757H72.1122V10.5527L72.2842 10.6643C72.0951 11.0704 71.8301 11.3773 71.4891 11.585C71.1512 11.7927 70.7389 11.8965 70.2522 11.8965ZM70.3777 11.2037C70.6753 11.2037 70.9326 11.151 71.1496 11.0456C71.3697 10.9371 71.5464 10.796 71.6797 10.6224C71.813 10.4457 71.8998 10.2535 71.9401 10.0458C71.9866 9.8908 72.0114 9.71875 72.0145 9.52965C72.0207 9.33745 72.0238 9.1902 72.0238 9.0879L72.3121 9.21345C72.0424 9.25065 71.7774 9.2863 71.517 9.3204C71.2566 9.3545 71.0101 9.3917 70.7776 9.432C70.5451 9.4692 70.3359 9.51415 70.1499 9.56685C70.0135 9.61025 69.8848 9.66605 69.7639 9.73425C69.6461 9.80245 69.55 9.8908 69.4756 9.9993C69.4043 10.1047 69.3687 10.2365 69.3687 10.3946C69.3687 10.531 69.4028 10.6612 69.471 10.7852C69.5423 10.9092 69.6508 11.0099 69.7965 11.0874C69.9453 11.1649 70.139 11.2037 70.3777 11.2037ZM75.5578 11.8965C75.1827 11.8965 74.8681 11.8283 74.6139 11.6919C74.3628 11.5524 74.1721 11.3695 74.0419 11.1432C73.9148 10.9169 73.8513 10.6689 73.8513 10.3992C73.8513 10.1357 73.9009 9.90785 74.0001 9.71565C74.1024 9.52035 74.245 9.35915 74.4279 9.23205C74.6108 9.10185 74.8293 8.99955 75.0835 8.92515C75.3222 8.86005 75.5888 8.80425 75.8833 8.75775C76.1809 8.70815 76.4816 8.6632 76.7854 8.6229C77.0892 8.5826 77.3729 8.54385 77.6364 8.50665L77.3388 8.6787C77.3481 8.2323 77.2582 7.90215 77.0691 7.68825C76.8831 7.47435 76.5607 7.3674 76.1019 7.3674C75.7981 7.3674 75.5315 7.43715 75.3021 7.57665C75.0758 7.71305 74.9161 7.93625 74.8231 8.24625L74.0373 8.0091C74.1582 7.5689 74.3922 7.22325 74.7394 6.97215C75.0866 6.72105 75.5439 6.5955 76.1112 6.5955C76.5669 6.5955 76.9575 6.67765 77.283 6.84195C77.6116 7.00315 77.8472 7.24805 77.9898 7.57665C78.0611 7.73165 78.106 7.9006 78.1246 8.0835C78.1432 8.2633 78.1525 8.4524 78.1525 8.6508V11.757H77.4178V10.5527L77.5899 10.6643C77.4008 11.0704 77.1357 11.3773 76.7947 11.585C76.4568 11.7927 76.0445 11.8965 75.5578 11.8965ZM75.6834 11.2037C75.981 11.2037 76.2383 11.151 76.4553 11.0456C76.6754 10.9371 76.8521 10.796 76.9854 10.6224C77.1187 10.4457 77.2055 10.2535 77.2458 10.0458C77.2923 9.8908 77.3171 9.71875 77.3202 9.52965C77.3264 9.33745 77.3295 9.1902 77.3295 9.0879L77.6178 9.21345C77.3481 9.25065 77.083 9.2863 76.8226 9.3204C76.5622 9.3545 76.3158 9.3917 76.0833 9.432C75.8508 9.4692 75.6415 9.51415 75.4555 9.56685C75.3191 9.61025 75.1905 9.66605 75.0696 9.73425C74.9518 9.80245 74.8557 9.8908 74.7813 9.9993C74.71 10.1047 74.6743 10.2365 74.6743 10.3946C74.6743 10.531 74.7084 10.6612 74.7766 10.7852C74.8479 10.9092 74.9564 11.0099 75.1021 11.0874C75.2509 11.1649 75.4447 11.2037 75.6834 11.2037ZM79.4359 11.757V6.735H80.1753V7.94865L80.0544 7.79055C80.1133 7.63555 80.1892 7.49295 80.2822 7.36275C80.3783 7.23255 80.4853 7.1256 80.6031 7.0419C80.7333 6.9365 80.8805 6.8559 81.0448 6.8001C81.2091 6.7443 81.3765 6.71175 81.547 6.70245C81.7175 6.69005 81.8772 6.7009 82.026 6.735V7.51155C81.8524 7.46505 81.6617 7.45265 81.454 7.47435C81.2463 7.49605 81.0541 7.572 80.8774 7.7022C80.7162 7.8169 80.5907 7.9564 80.5008 8.1207C80.414 8.285 80.3535 8.46325 80.3194 8.65545C80.2853 8.84455 80.2683 9.0383 80.2683 9.2367V11.757H79.4359ZM87.0921 11.8965C86.5992 11.8965 86.1683 11.788 85.7994 11.571C85.4336 11.3509 85.1484 11.0456 84.9438 10.655C84.7392 10.2613 84.6369 9.80245 84.6369 9.27855C84.6369 8.72985 84.7376 8.25555 84.9391 7.85565C85.1406 7.45265 85.4212 7.14265 85.7808 6.92565C86.1435 6.70555 86.5682 6.5955 87.0549 6.5955C87.5602 6.5955 87.9895 6.71175 88.3429 6.94425C88.6994 7.17675 88.966 7.50845 89.1427 7.93935C89.3225 8.37025 89.4 8.8833 89.3752 9.4785H88.5382V9.1809C88.5289 8.564 88.4034 8.10365 88.1616 7.79985C87.9198 7.49295 87.5602 7.3395 87.0828 7.3395C86.5713 7.3395 86.1822 7.5038 85.9156 7.8324C85.649 8.161 85.5157 8.6322 85.5157 9.246C85.5157 9.8381 85.649 10.2969 85.9156 10.6224C86.1822 10.9479 86.562 11.1107 87.0549 11.1107C87.3866 11.1107 87.6749 11.0347 87.9198 10.8828C88.1647 10.7309 88.3569 10.5124 88.4964 10.2272L89.2915 10.5015C89.0962 10.9448 88.8017 11.2889 88.408 11.5338C88.0174 11.7756 87.5788 11.8965 87.0921 11.8965ZM85.2367 9.4785V8.81355H88.9474V9.4785H85.2367ZM90.4849 11.757V6.735H91.2243V7.94865L91.1034 7.79055C91.1623 7.63555 91.2382 7.49295 91.3312 7.36275C91.4273 7.23255 91.5343 7.1256 91.6521 7.0419C91.7823 6.9365 91.9295 6.8559 92.0938 6.8001C92.2581 6.7443 92.4255 6.71175 92.596 6.70245C92.7665 6.69005 92.9262 6.7009 93.075 6.735V7.51155C92.9014 7.46505 92.7107 7.45265 92.503 7.47435C92.2953 7.49605 92.1031 7.572 91.9264 7.7022C91.7652 7.8169 91.6397 7.9564 91.5498 8.1207C91.463 8.285 91.4025 8.46325 91.3684 8.65545C91.3343 8.84455 91.3173 9.0383 91.3173 9.2367V11.757H90.4849ZM95.3864 11.757L93.5636 6.735H94.4006L95.8096 10.7015L97.2139 6.735H98.0555L96.2327 11.757H95.3864ZM100.117 11.8965C99.7419 11.8965 99.4273 11.8283 99.1731 11.6919C98.922 11.5524 98.7313 11.3695 98.6011 11.1432C98.474 10.9169 98.4105 10.6689 98.4105 10.3992C98.4105 10.1357 98.4601 9.90785 98.5593 9.71565C98.6616 9.52035 98.8042 9.35915 98.9871 9.23205C99.17 9.10185 99.3885 8.99955 99.6427 8.92515C99.8814 8.86005 100.148 8.80425 100.443 8.75775C100.74 8.70815 101.041 8.6632 101.345 8.6229C101.648 8.5826 101.932 8.54385 102.196 8.50665L101.898 8.6787C101.907 8.2323 101.817 7.90215 101.628 7.68825C101.442 7.47435 101.12 7.3674 100.661 7.3674C100.357 7.3674 100.091 7.43715 99.8613 7.57665C99.635 7.71305 99.4753 7.93625 99.3823 8.24625L98.5965 8.0091C98.7174 7.5689 98.9514 7.22325 99.2986 6.97215C99.6458 6.72105 100.103 6.5955 100.67 6.5955C101.126 6.5955 101.517 6.67765 101.842 6.84195C102.171 7.00315 102.406 7.24805 102.549 7.57665C102.62 7.73165 102.665 7.9006 102.684 8.0835C102.702 8.2633 102.712 8.4524 102.712 8.6508V11.757H101.977V10.5527L102.149 10.6643C101.96 11.0704 101.695 11.3773 101.354 11.585C101.016 11.7927 100.604 11.8965 100.117 11.8965ZM100.243 11.2037C100.54 11.2037 100.797 11.151 101.014 11.0456C101.235 10.9371 101.411 10.796 101.545 10.6224C101.678 10.4457 101.765 10.2535 101.805 10.0458C101.851 9.8908 101.876 9.71875 101.879 9.52965C101.886 9.33745 101.889 9.1902 101.889 9.0879L102.177 9.21345C101.907 9.25065 101.642 9.2863 101.382 9.3204C101.121 9.3545 100.875 9.3917 100.642 9.432C100.41 9.4692 100.201 9.51415 100.015 9.56685C99.8783 9.61025 99.7497 9.66605 99.6288 9.73425C99.511 9.80245 99.4149 9.8908 99.3405 9.9993C99.2692 10.1047 99.2335 10.2365 99.2335 10.3946C99.2335 10.531 99.2676 10.6612 99.3358 10.7852C99.4071 10.9092 99.5156 11.0099 99.6613 11.0874C99.8101 11.1649 100.004 11.2037 100.243 11.2037ZM103.995 11.757V6.735H104.734V7.94865L104.614 7.79055C104.672 7.63555 104.748 7.49295 104.841 7.36275C104.938 7.23255 105.044 7.1256 105.162 7.0419C105.292 6.9365 105.44 6.8559 105.604 6.8001C105.768 6.7443 105.936 6.71175 106.106 6.70245C106.277 6.69005 106.436 6.7009 106.585 6.735V7.51155C106.412 7.46505 106.221 7.45265 106.013 7.47435C105.806 7.49605 105.613 7.572 105.437 7.7022C105.275 7.8169 105.15 7.9564 105.06 8.1207C104.973 8.285 104.913 8.46325 104.879 8.65545C104.845 8.84455 104.827 9.0383 104.827 9.2367V11.757H103.995ZM107.632 5.84685V4.99125H108.46V5.84685H107.632ZM107.632 11.757V6.735H108.46V11.757H107.632ZM113.505 11.757V9.24135C113.505 9.00265 113.483 8.77325 113.44 8.55315C113.4 8.33305 113.327 8.1362 113.221 7.9626C113.119 7.7859 112.98 7.6464 112.803 7.5441C112.629 7.4418 112.409 7.39065 112.143 7.39065C111.935 7.39065 111.746 7.4263 111.575 7.4976C111.408 7.5658 111.264 7.6712 111.143 7.8138C111.022 7.9564 110.927 8.1362 110.859 8.3532C110.794 8.5671 110.762 8.81975 110.762 9.11115L110.217 8.94375C110.217 8.45705 110.304 8.0401 110.478 7.6929C110.655 7.3426 110.901 7.07445 111.217 6.88845C111.537 6.69935 111.912 6.6048 112.343 6.6048C112.668 6.6048 112.945 6.65595 113.175 6.75825C113.404 6.86055 113.595 6.99695 113.747 7.16745C113.899 7.33485 114.018 7.52395 114.105 7.73475C114.192 7.94245 114.252 8.1548 114.286 8.3718C114.323 8.5857 114.342 8.78875 114.342 8.98095V11.757H113.505ZM109.925 11.757V6.735H110.669V8.07885H110.762V11.757H109.925ZM117.657 14.1285C117.394 14.1285 117.137 14.0882 116.886 14.0076C116.634 13.927 116.403 13.8046 116.193 13.6403C115.985 13.4791 115.811 13.2745 115.672 13.0265L116.43 12.6266C116.554 12.8715 116.729 13.0497 116.955 13.1613C117.185 13.2729 117.42 13.3287 117.662 13.3287C117.981 13.3287 118.246 13.2698 118.457 13.152C118.668 13.0373 118.823 12.8653 118.922 12.6359C119.025 12.4065 119.074 12.1213 119.071 11.7803V10.4085H119.169V6.735H119.903V11.7896C119.903 11.926 119.899 12.0577 119.889 12.1848C119.883 12.3119 119.868 12.4375 119.843 12.5615C119.778 12.918 119.649 13.2109 119.457 13.4403C119.265 13.6728 119.017 13.8449 118.713 13.9565C118.409 14.0712 118.057 14.1285 117.657 14.1285ZM117.597 11.8965C117.129 11.8965 116.727 11.7803 116.393 11.5478C116.058 11.3122 115.799 10.9944 115.616 10.5945C115.436 10.1946 115.346 9.74355 115.346 9.24135C115.346 8.73915 115.436 8.2881 115.616 7.8882C115.799 7.4883 116.058 7.17365 116.393 6.94425C116.727 6.71175 117.127 6.5955 117.592 6.5955C118.067 6.5955 118.465 6.7102 118.787 6.9396C119.11 7.169 119.353 7.48365 119.517 7.88355C119.685 8.28345 119.769 8.73605 119.769 9.24135C119.769 9.74045 119.685 10.1915 119.517 10.5945C119.353 10.9944 119.11 11.3122 118.787 11.5478C118.465 11.7803 118.068 11.8965 117.597 11.8965ZM117.699 11.1386C118.037 11.1386 118.315 11.058 118.532 10.8968C118.749 10.7325 118.908 10.5077 119.011 10.2225C119.116 9.9342 119.169 9.60715 119.169 9.24135C119.169 8.86935 119.116 8.5423 119.011 8.2602C118.908 7.975 118.75 7.75335 118.536 7.59525C118.322 7.43405 118.051 7.35345 117.723 7.35345C117.382 7.35345 117.099 7.43715 116.876 7.60455C116.656 7.77195 116.492 7.99825 116.383 8.28345C116.278 8.56865 116.225 8.88795 116.225 9.24135C116.225 9.59785 116.279 9.92025 116.388 10.2086C116.496 10.4938 116.659 10.7201 116.876 10.8875C117.096 11.0549 117.371 11.1386 117.699 11.1386ZM124.64 11.8965C124.265 11.8965 123.95 11.8283 123.696 11.6919C123.445 11.5524 123.254 11.3695 123.124 11.1432C122.997 10.9169 122.933 10.6689 122.933 10.3992C122.933 10.1357 122.983 9.90785 123.082 9.71565C123.184 9.52035 123.327 9.35915 123.51 9.23205C123.693 9.10185 123.911 8.99955 124.166 8.92515C124.404 8.86005 124.671 8.80425 124.965 8.75775C125.263 8.70815 125.564 8.6632 125.867 8.6229C126.171 8.5826 126.455 8.54385 126.718 8.50665L126.421 8.6787C126.43 8.2323 126.34 7.90215 126.151 7.68825C125.965 7.47435 125.643 7.3674 125.184 7.3674C124.88 7.3674 124.614 7.43715 124.384 7.57665C124.158 7.71305 123.998 7.93625 123.905 8.24625L123.119 8.0091C123.24 7.5689 123.474 7.22325 123.821 6.97215C124.169 6.72105 124.626 6.5955 125.193 6.5955C125.649 6.5955 126.04 6.67765 126.365 6.84195C126.694 7.00315 126.929 7.24805 127.072 7.57665C127.143 7.73165 127.188 7.9006 127.207 8.0835C127.225 8.2633 127.235 8.4524 127.235 8.6508V11.757H126.5V10.5527L126.672 10.6643C126.483 11.0704 126.218 11.3773 125.877 11.585C125.539 11.7927 125.127 11.8965 124.64 11.8965ZM124.765 11.2037C125.063 11.2037 125.32 11.151 125.537 11.0456C125.757 10.9371 125.934 10.796 126.067 10.6224C126.201 10.4457 126.288 10.2535 126.328 10.0458C126.374 9.8908 126.399 9.71875 126.402 9.52965C126.408 9.33745 126.412 9.1902 126.412 9.0879L126.7 9.21345C126.43 9.25065 126.165 9.2863 125.905 9.3204C125.644 9.3545 125.398 9.3917 125.165 9.432C124.933 9.4692 124.724 9.51415 124.538 9.56685C124.401 9.61025 124.273 9.66605 124.152 9.73425C124.034 9.80245 123.938 9.8908 123.863 9.9993C123.792 10.1047 123.756 10.2365 123.756 10.3946C123.756 10.531 123.79 10.6612 123.859 10.7852C123.93 10.9092 124.038 11.0099 124.184 11.0874C124.333 11.1649 124.527 11.2037 124.765 11.2037ZM128.611 11.757V4.9215H129.439V11.757H128.611ZM132.806 11.8919C132.207 11.8919 131.716 11.7617 131.331 11.5013C130.95 11.2378 130.716 10.8704 130.629 10.3992L131.476 10.2644C131.544 10.5372 131.7 10.7542 131.945 10.9154C132.19 11.0735 132.494 11.1525 132.857 11.1525C133.201 11.1525 133.47 11.0812 133.666 10.9386C133.861 10.796 133.959 10.6023 133.959 10.3574C133.959 10.2148 133.926 10.1001 133.861 10.0133C133.796 9.92335 133.661 9.83965 133.457 9.76215C133.255 9.68465 132.95 9.59165 132.54 9.48315C132.097 9.36535 131.748 9.2429 131.494 9.1158C131.24 8.9887 131.059 8.84145 130.95 8.67405C130.842 8.50665 130.787 8.3036 130.787 8.0649C130.787 7.7704 130.868 7.5131 131.029 7.293C131.19 7.0698 131.415 6.89775 131.703 6.77685C131.995 6.65595 132.333 6.5955 132.717 6.5955C133.098 6.5955 133.439 6.65595 133.74 6.77685C134.041 6.89775 134.283 7.0698 134.466 7.293C134.652 7.5131 134.762 7.7704 134.796 8.0649L133.949 8.21835C133.909 7.94865 133.779 7.7363 133.559 7.5813C133.342 7.4263 133.061 7.34415 132.717 7.33485C132.392 7.32245 132.127 7.3798 131.922 7.5069C131.721 7.634 131.62 7.80605 131.62 8.02305C131.62 8.14395 131.657 8.2478 131.731 8.3346C131.809 8.4214 131.95 8.50355 132.155 8.58105C132.362 8.65855 132.663 8.7469 133.057 8.8461C133.5 8.9577 133.849 9.08015 134.103 9.21345C134.36 9.34365 134.543 9.49865 134.652 9.67845C134.76 9.85515 134.814 10.0737 134.814 10.3341C134.814 10.8177 134.636 11.199 134.28 11.478C133.923 11.7539 133.432 11.8919 132.806 11.8919ZM139.989 11.8965C139.49 11.8965 139.059 11.7834 138.697 11.5571C138.337 11.3308 138.06 11.0177 137.864 10.6178C137.669 10.2179 137.571 9.75905 137.571 9.24135C137.571 8.71435 137.671 8.25245 137.869 7.85565C138.067 7.45885 138.348 7.1504 138.711 6.9303C139.073 6.7071 139.5 6.5955 139.989 6.5955C140.492 6.5955 140.924 6.70865 141.287 6.93495C141.65 7.15815 141.927 7.4697 142.119 7.8696C142.314 8.2664 142.412 8.72365 142.412 9.24135C142.412 9.76525 142.314 10.2272 142.119 10.6271C141.924 11.0239 141.645 11.3354 141.282 11.5617C140.919 11.7849 140.489 11.8965 139.989 11.8965ZM139.989 11.1107C140.51 11.1107 140.898 10.9371 141.152 10.5899C141.406 10.2427 141.533 9.79315 141.533 9.24135C141.533 8.67405 141.405 8.223 141.147 7.8882C140.89 7.5503 140.504 7.38135 139.989 7.38135C139.639 7.38135 139.351 7.4604 139.125 7.6185C138.898 7.7766 138.729 7.99515 138.618 8.27415C138.506 8.55315 138.45 8.87555 138.45 9.24135C138.45 9.80555 138.581 10.2582 138.841 10.5992C139.101 10.9402 139.484 11.1107 139.989 11.1107ZM145.817 11.8965C145.346 11.8965 144.949 11.7803 144.626 11.5478C144.304 11.3122 144.059 10.9944 143.892 10.5945C143.727 10.1915 143.645 9.74045 143.645 9.24135C143.645 8.73605 143.727 8.28345 143.892 7.88355C144.059 7.48365 144.304 7.169 144.626 6.9396C144.952 6.7102 145.35 6.5955 145.821 6.5955C146.286 6.5955 146.686 6.71175 147.021 6.94425C147.359 7.17365 147.618 7.4883 147.798 7.8882C147.977 8.2881 148.067 8.73915 148.067 9.24135C148.067 9.74355 147.977 10.1946 147.798 10.5945C147.618 10.9944 147.359 11.3122 147.021 11.5478C146.686 11.7803 146.285 11.8965 145.817 11.8965ZM143.506 13.989V6.735H144.245V10.4318H144.338V13.989H143.506ZM145.714 11.1386C146.046 11.1386 146.32 11.0549 146.537 10.8875C146.754 10.7201 146.917 10.4938 147.026 10.2086C147.134 9.92025 147.188 9.59785 147.188 9.24135C147.188 8.88795 147.134 8.56865 147.026 8.28345C146.92 7.99825 146.756 7.77195 146.533 7.60455C146.313 7.43715 146.032 7.35345 145.691 7.35345C145.366 7.35345 145.096 7.43405 144.882 7.59525C144.668 7.75335 144.509 7.975 144.403 8.2602C144.298 8.5423 144.245 8.86935 144.245 9.24135C144.245 9.60715 144.296 9.9342 144.398 10.2225C144.504 10.5077 144.665 10.7325 144.882 10.8968C145.099 11.058 145.377 11.1386 145.714 11.1386ZM151.467 11.8965C150.996 11.8965 150.599 11.7803 150.277 11.5478C149.955 11.3122 149.71 10.9944 149.542 10.5945C149.378 10.1915 149.296 9.74045 149.296 9.24135C149.296 8.73605 149.378 8.28345 149.542 7.88355C149.71 7.48365 149.955 7.169 150.277 6.9396C150.603 6.7102 151.001 6.5955 151.472 6.5955C151.937 6.5955 152.337 6.71175 152.672 6.94425C153.01 7.17365 153.269 7.4883 153.448 7.8882C153.628 8.2881 153.718 8.73915 153.718 9.24135C153.718 9.74355 153.628 10.1946 153.448 10.5945C153.269 10.9944 153.01 11.3122 152.672 11.5478C152.337 11.7803 151.936 11.8965 151.467 11.8965ZM149.156 13.989V6.735H149.896V10.4318H149.989V13.989H149.156ZM151.365 11.1386C151.697 11.1386 151.971 11.0549 152.188 10.8875C152.405 10.7201 152.568 10.4938 152.676 10.2086C152.785 9.92025 152.839 9.59785 152.839 9.24135C152.839 8.88795 152.785 8.56865 152.676 8.28345C152.571 7.99825 152.407 7.77195 152.184 7.60455C151.963 7.43715 151.683 7.35345 151.342 7.35345C151.016 7.35345 150.747 7.43405 150.533 7.59525C150.319 7.75335 150.159 7.975 150.054 8.2602C149.948 8.5423 149.896 8.86935 149.896 9.24135C149.896 9.60715 149.947 9.9342 150.049 10.2225C150.155 10.5077 150.316 10.7325 150.533 10.8968C150.75 11.058 151.027 11.1386 151.365 11.1386ZM156.239 11.8965C155.864 11.8965 155.55 11.8283 155.295 11.6919C155.044 11.5524 154.854 11.3695 154.723 11.1432C154.596 10.9169 154.533 10.6689 154.533 10.3992C154.533 10.1357 154.582 9.90785 154.682 9.71565C154.784 9.52035 154.927 9.35915 155.109 9.23205C155.292 9.10185 155.511 8.99955 155.765 8.92515C156.004 8.86005 156.27 8.80425 156.565 8.75775C156.862 8.70815 157.163 8.6632 157.467 8.6229C157.771 8.5826 158.054 8.54385 158.318 8.50665L158.02 8.6787C158.03 8.2323 157.94 7.90215 157.751 7.68825C157.565 7.47435 157.242 7.3674 156.783 7.3674C156.48 7.3674 156.213 7.43715 155.984 7.57665C155.757 7.71305 155.598 7.93625 155.505 8.24625L154.719 8.0091C154.84 7.5689 155.074 7.22325 155.421 6.97215C155.768 6.72105 156.225 6.5955 156.793 6.5955C157.248 6.5955 157.639 6.67765 157.965 6.84195C158.293 7.00315 158.529 7.24805 158.671 7.57665C158.743 7.73165 158.788 7.9006 158.806 8.0835C158.825 8.2633 158.834 8.4524 158.834 8.6508V11.757H158.099V10.5527L158.271 10.6643C158.082 11.0704 157.817 11.3773 157.476 11.585C157.138 11.7927 156.726 11.8965 156.239 11.8965ZM156.365 11.2037C156.663 11.2037 156.92 11.151 157.137 11.0456C157.357 10.9371 157.534 10.796 157.667 10.6224C157.8 10.4457 157.887 10.2535 157.927 10.0458C157.974 9.8908 157.999 9.71875 158.002 9.52965C158.008 9.33745 158.011 9.1902 158.011 9.0879L158.299 9.21345C158.03 9.25065 157.765 9.2863 157.504 9.3204C157.244 9.3545 156.997 9.3917 156.765 9.432C156.532 9.4692 156.323 9.51415 156.137 9.56685C156.001 9.61025 155.872 9.66605 155.751 9.73425C155.633 9.80245 155.537 9.8908 155.463 9.9993C155.392 10.1047 155.356 10.2365 155.356 10.3946C155.356 10.531 155.39 10.6612 155.458 10.7852C155.529 10.9092 155.638 11.0099 155.784 11.0874C155.932 11.1649 156.126 11.2037 156.365 11.2037ZM162.015 11.8919C161.416 11.8919 160.925 11.7617 160.541 11.5013C160.159 11.2378 159.925 10.8704 159.838 10.3992L160.685 10.2644C160.753 10.5372 160.91 10.7542 161.154 10.9154C161.399 11.0735 161.703 11.1525 162.066 11.1525C162.41 11.1525 162.68 11.0812 162.875 10.9386C163.07 10.796 163.168 10.6023 163.168 10.3574C163.168 10.2148 163.135 10.1001 163.07 10.0133C163.005 9.92335 162.87 9.83965 162.666 9.76215C162.464 9.68465 162.159 9.59165 161.75 9.48315C161.306 9.36535 160.958 9.2429 160.703 9.1158C160.449 8.9887 160.268 8.84145 160.159 8.67405C160.051 8.50665 159.997 8.3036 159.997 8.0649C159.997 7.7704 160.077 7.5131 160.238 7.293C160.4 7.0698 160.624 6.89775 160.913 6.77685C161.204 6.65595 161.542 6.5955 161.926 6.5955C162.308 6.5955 162.649 6.65595 162.949 6.77685C163.25 6.89775 163.492 7.0698 163.675 7.293C163.861 7.5131 163.971 7.7704 164.005 8.0649L163.159 8.21835C163.118 7.94865 162.988 7.7363 162.768 7.5813C162.551 7.4263 162.27 7.34415 161.926 7.33485C161.601 7.32245 161.336 7.3798 161.131 7.5069C160.93 7.634 160.829 7.80605 160.829 8.02305C160.829 8.14395 160.866 8.2478 160.941 8.3346C161.018 8.4214 161.159 8.50355 161.364 8.58105C161.571 8.65855 161.872 8.7469 162.266 8.8461C162.709 8.9577 163.058 9.08015 163.312 9.21345C163.569 9.34365 163.752 9.49865 163.861 9.67845C163.969 9.85515 164.023 10.0737 164.023 10.3341C164.023 10.8177 163.845 11.199 163.489 11.478C163.132 11.7539 162.641 11.8919 162.015 11.8919Z" fill="#75695E"/>
</svg>
